<svg xmlns="http://www.w3.org/2000/svg" width="11" height="14" fill="none" viewBox="0 0 11 14">
    <path fill="#44435E" d="M10.92 1.73L9.82.63c-.108-.107-.282-.107-.39 0-.107.108-.107.282 0 .39l.906.905-.905.906c-.052.051-.081.12-.081.194v.825c0 .607.493 1.1 1.1 1.1v4.675c0 .152-.123.275-.275.275-.152 0-.275-.123-.275-.275v-.55c0-.455-.37-.825-.825-.825H8.8V1.1C8.8.493 8.307 0 7.7 0H2.2c-.607 0-1.1.493-1.1 1.1V11c-.607 0-1.1.493-1.1 1.1v.825c0 .152.123.275.275.275h9.35c.152 0 .275-.123.275-.275V12.1c0-.607-.493-1.1-1.1-1.1V8.8h.275c.152 0 .275.123.275.275v.55c0 .455.37.825.825.825.455 0 .825-.37.825-.825v-7.7c0-.073-.029-.143-.08-.194zM1.65 1.1c0-.303.247-.55.55-.55h5.5c.303 0 .55.247.55.55V11h-6.6V1.1zm7.7 11v.55H.55v-.55c0-.303.247-.55.55-.55h7.7c.303 0 .55.247.55.55zm1.1-7.7c-.303 0-.55-.247-.55-.55v-.711l.55-.55V4.4z"/>
    <path fill="#44435E" d="M7.425 1.1h-4.95c-.152 0-.275.123-.275.275V4.68c0 .152.123.275.275.275h4.95c.152 0 .275-.123.275-.275V1.375c0-.152-.123-.275-.275-.275zM7.15 4.405h-4.4V1.65h4.4v2.755z"/>
</svg>
