<svg xmlns="http://www.w3.org/2000/svg" width="22" height="12" fill="none" viewBox="0 0 22 12">
    <path fill="#44435E" d="M20.855 4.45l-1.767-.807-1.56-2.489C17.077.433 16.284-.004 15.432 0H8.785c-.77 0-1.5.356-1.97.97L4.801 3.606l-3.358.92C.59 4.76 0 5.54 0 6.423V7.71c0 1.087.866 1.984 1.952 1.984h.289c.347 1.339 1.713 2.141 3.052 1.794.879-.23 1.568-.915 1.794-1.794h7.574c.347 1.339 1.713 2.141 3.052 1.794.879-.23 1.569-.915 1.794-1.794h.54c1.087 0 1.953-.897 1.953-1.984V6.244c.005-.771-.446-1.474-1.145-1.794zM4.66 10.657c-.883 0-1.6-.716-1.6-1.6 0-.884.717-1.6 1.6-1.6.884 0 1.6.716 1.6 1.6.005.88-.711 1.596-1.6 1.6zm12.42 0c-.883 0-1.6-.716-1.6-1.6 0-.884.717-1.6 1.6-1.6.884 0 1.6.716 1.6 1.6.005.88-.711 1.596-1.6 1.6zm2.967-1.866h-.478c-.149-1.375-1.389-2.367-2.764-2.214-1.167.127-2.087 1.05-2.213 2.214H7.15c-.149-1.375-1.389-2.367-2.764-2.214-1.167.127-2.087 1.05-2.213 2.214h-.225c-.591 0-1.05-.491-1.05-1.082V6.424c-.005-.482.315-.901.779-1.032l3.512-.96c.095-.027.18-.082.239-.163l2.1-2.754c.303-.388.767-.613 1.258-.613h6.646c.54-.005 1.05.27 1.334.73l1.632 2.606c.045.076.117.135.194.171l1.884.861c.379.176.622.555.618.974v1.465h.004c0 .59-.46 1.082-1.05 1.082z"/>
</svg>
