<svg xmlns="http://www.w3.org/2000/svg" width="54" height="54" fill="none" viewBox="0 0 54 54">
    <path fill="#F61420" d="M8.423 42.913a4.328 4.328 0 01-.394 1.505 3.703 3.703 0 01-.85 1.145 3.773 3.773 0 01-1.237.738 4.486 4.486 0 01-1.54.259 4.63 4.63 0 01-1.91-.371 3.893 3.893 0 01-1.374-1.02 4.282 4.282 0 01-.836-1.532A6.264 6.264 0 010 41.727a7.508 7.508 0 01.252-1.968 4.582 4.582 0 01.795-1.625c.364-.465.83-.84 1.363-1.095a4.416 4.416 0 011.96-.4c1.238 0 2.197.341 2.88 1.026.683.684 1.076 1.63 1.182 2.838l-2.749.142a2.749 2.749 0 00-.048-.635 2.02 2.02 0 00-.21-.588 1.307 1.307 0 00-.395-.442 1.04 1.04 0 00-.625-.177.935.935 0 00-.765.33c-.19.234-.329.505-.408.795-.09.314-.145.636-.162.962-.019.332-.028.612-.028.836 0 .225 0 .516.028.816.016.29.073.576.17.85.085.253.226.483.414.673a1.053 1.053 0 00.779.275c.203.006.405-.043.584-.14.16-.09.296-.215.4-.366.105-.157.183-.33.23-.513.05-.19.081-.386.091-.582l2.685.174zM13.719 44.53h-2.57l-.59 1.896H8.156l2.994-9.642h3.12l3.02 9.642h-3.02l-.55-1.896zm-.504-2.11l-.788-2.795-.786 2.795h1.574zM20.38 46.426h-2.994v-9.642h4.904c.434.002.867.04 1.294.115.428.07.835.232 1.193.476.391.238.704.584.9.997.195.412.294.863.29 1.32a2.648 2.648 0 01-.422 1.553c-.332.438-.774.78-1.28.992l1.742 4.2h-3.296l-1.404-3.68h-.916l-.011 3.67zm0-5.747h1.08c.165 0 .33-.01.493-.028.159-.017.314-.06.458-.128a.882.882 0 00.337-.28.82.82 0 00.133-.492.917.917 0 00-.12-.458.788.788 0 00-.343-.332 1.11 1.11 0 00-.415-.113c-.146 0-.288-.013-.428-.013H20.38v1.844z"/>
    <path fill="#354882" d="M30.547 39.245h1.432v1.833h-1.404v2.838a.739.739 0 00.055.296c.037.082.098.15.176.195.116.055.245.08.373.07.134 0 .267-.011.399-.034.135-.023.269-.053.4-.091v2.009a4.113 4.113 0 01-.526.112 11.887 11.887 0 01-1.033.112 6.21 6.21 0 01-.364.014 2.386 2.386 0 01-.928-.18 2.313 2.313 0 01-.802-.578 1.741 1.741 0 01-.458-.956 8.617 8.617 0 01-.064-1.097v-2.714h-1.04V39.24h1.166l.21-2.29 2.42-.086-.012 2.38zM39.82 44.024a3.231 3.231 0 01-.52 1.145c-.229.313-.515.58-.843.786a3.826 3.826 0 01-1.088.458 4.892 4.892 0 01-1.23.154 5.791 5.791 0 01-1.54-.204 3.461 3.461 0 01-1.356-.738 3.34 3.34 0 01-.884-1.223 3.595 3.595 0 01-.282-1.476c-.006-.499.082-.995.262-1.461.17-.467.435-.893.778-1.25a3.305 3.305 0 011.315-.844 4.676 4.676 0 011.537-.266 4.388 4.388 0 011.604.28c.453.175.864.444 1.207.788.341.35.603.77.767 1.23.182.515.272 1.058.266 1.604v.38h-4.81c-.015.336.064.669.229.962.155.247.444.373.865.373.264.016.526-.056.745-.203.196-.172.321-.41.35-.67l2.628.175zm-2.81-2.04a1.679 1.679 0 00-.212-.883c-.14-.23-.407-.353-.799-.353a.833.833 0 00-.774.373c-.155.261-.234.56-.23.864h2.014zM46.93 43.729c-.13.937-.5 1.644-1.11 2.12a3.591 3.591 0 01-2.29.718 4.567 4.567 0 01-1.427-.21 3.163 3.163 0 01-1.214-.773 3.438 3.438 0 01-.808-1.25 4.205 4.205 0 01-.261-1.476 4.124 4.124 0 01.268-1.505c.167-.442.423-.846.75-1.187.332-.337.729-.603 1.167-.78a4.198 4.198 0 012.748-.09c.376.119.727.307 1.034.554.3.247.551.55.737.891.198.374.324.782.371 1.203l-2.458.21-.016-.07a35.8 35.8 0 01-.082-.371 1.092 1.092 0 00-.135-.34.783.783 0 00-.23-.244.771.771 0 00-.883.091 1.175 1.175 0 00-.262.47c-.056.192-.09.39-.098.59 0 .207-.014.39-.014.548 0 .158 0 .358.014.564.008.195.043.39.105.575.056.173.153.33.282.458a.728.728 0 00.527.181.687.687 0 00.646-.337c.13-.225.217-.473.254-.73l2.385.19z"/>
    <path fill="#354882" d="M48.911 44.099a.79.79 0 00.23.408c.104.1.226.178.359.233a1.7 1.7 0 00.458.106 4.034 4.034 0 00.74.007c.12-.009.24-.028.357-.058a.828.828 0 00.302-.133.287.287 0 00.126-.245.255.255 0 00-.153-.229 1.468 1.468 0 00-.36-.133 3.659 3.659 0 00-.398-.07l-.296-.035a19.692 19.692 0 01-1.145-.204 4 4 0 01-1.06-.371 2.163 2.163 0 01-.782-.687 2.225 2.225 0 010-2.24c.209-.321.485-.593.809-.795.344-.211.722-.358 1.118-.436a6.184 6.184 0 011.186-.112c.34 0 .68.035 1.013.105.327.066.643.174.941.323.29.145.55.34.772.575.231.25.408.545.52.866l-2.087.406a.87.87 0 00-.527-.488 2.12 2.12 0 00-.73-.135 1.588 1.588 0 00-.64.114c-.173.073-.26.163-.26.266a.264.264 0 00.125.245c.092.055.192.096.296.121.196.052.396.087.598.106l.611.062c.328.048.665.1 1.01.162.337.056.658.183.942.371a2.048 2.048 0 011.013 1.833c.016.44-.106.872-.351 1.237a2.551 2.551 0 01-.9.779 4.17 4.17 0 01-1.2.408 6.98 6.98 0 01-1.258.119 6.28 6.28 0 01-1.168-.105 3.721 3.721 0 01-1.04-.358c-.32-.171-.606-.4-.843-.676a2.902 2.902 0 01-.561-1.04l2.233-.302z"/>
    <path fill="#000" d="M2.062 51.417a.916.916 0 01-.3.637 1.028 1.028 0 01-.687.229.987.987 0 01-.536-.145.95.95 0 01-.358-.41 1.443 1.443 0 01-.13-.616v-.229a1.5 1.5 0 01.126-.635.985.985 0 01.366-.421c.166-.1.358-.152.552-.149a.987.987 0 01.687.23c.179.168.286.4.298.645h-.453a.616.616 0 00-.16-.394.517.517 0 00-.376-.121.511.511 0 00-.443.21c-.115.185-.17.4-.158.617v.229c-.014.22.037.439.147.63a.492.492 0 00.433.229c.14.01.28-.033.392-.12a.605.605 0 00.165-.389l.435-.027zM4.05 52.245a.687.687 0 01-.048-.176.664.664 0 01-.497.21.673.673 0 01-.458-.162.52.52 0 01-.18-.401.536.536 0 01.23-.458c.192-.119.416-.175.641-.16H4v-.127a.33.33 0 00-.082-.229.323.323 0 00-.25-.089.378.378 0 00-.229.073.229.229 0 00-.091.184H2.92c0-.106.036-.208.103-.29a.669.669 0 01.281-.212.955.955 0 01.397-.078c.19-.009.378.05.529.167a.596.596 0 01.201.47v.852c-.005.14.02.278.071.408v.03l-.453-.012zm-.458-.307a.502.502 0 00.229-.06.414.414 0 00.167-.164v-.358h-.23a.625.625 0 00-.354.083.265.265 0 00-.12.229.248.248 0 00.083.195c.06.052.138.079.218.075h.007zM6.352 50.742a1.091 1.091 0 00-.174-.013.384.384 0 00-.392.229v1.294H5.36v-1.9h.406l.011.214a.479.479 0 01.575-.222v.398zM10.294 50.055h-.792v2.187h-.44v-2.187h-.793v-.358h2.018l.007.358zM11.77 52.28a.876.876 0 01-.656-.255.917.917 0 01-.25-.687v-.053a1.127 1.127 0 01.108-.506.81.81 0 01.747-.472.743.743 0 01.598.247c.149.197.223.44.21.688v.187H11.29c.007.14.063.27.158.371a.473.473 0 00.344.136.578.578 0 00.476-.23l.23.23a.754.754 0 01-.305.26.915.915 0 01-.424.083zm-.054-1.62a.367.367 0 00-.281.121.655.655 0 00-.138.341h.811v-.032a.52.52 0 00-.114-.32.354.354 0 00-.278-.11zM14.138 51.94c.096.004.19-.028.263-.09a.317.317 0 00.112-.23h.399a.63.63 0 01-.11.33.718.718 0 01-.28.24.822.822 0 01-.38.09.808.808 0 01-.63-.257 1.026 1.026 0 01-.229-.71v-.043a.999.999 0 01.23-.688.792.792 0 01.627-.26.78.78 0 01.55.196.7.7 0 01.229.516h-.399a.378.378 0 00-.233-.347.348.348 0 00-.143-.024.377.377 0 00-.318.149.768.768 0 00-.115.458v.068a.78.78 0 00.113.459.373.373 0 00.314.144zM16.156 50.562a.662.662 0 01.527-.243c.403 0 .607.229.613.687v1.235h-.426V51.02a.366.366 0 00-.084-.275.337.337 0 00-.248-.083.411.411 0 00-.382.23v1.351h-.424V49.56h.424v1.002zM18.622 50.353l.014.23a.687.687 0 01.55-.255c.394 0 .593.23.6.688v1.25h-.424v-1.225a.385.385 0 00-.077-.266.331.331 0 00-.255-.087.41.41 0 00-.382.23v1.346h-.424v-1.91h.398zM20.725 49.863a.23.23 0 01.062-.163.243.243 0 01.42.163c0 .06-.023.117-.065.16a.277.277 0 01-.355 0 .229.229 0 01-.062-.16zm.458 2.382h-.426v-1.892h.426v1.892zM23.201 51.733a.193.193 0 00-.091-.175 1.09 1.09 0 00-.312-.105 1.603 1.603 0 01-.362-.115.487.487 0 01-.318-.458.503.503 0 01.206-.408.816.816 0 01.525-.164c.196-.01.39.05.547.167a.537.537 0 01.21.435h-.425a.257.257 0 00-.09-.201.35.35 0 00-.242-.083.369.369 0 00-.23.064.204.204 0 00-.089.174.173.173 0 00.083.151c.104.054.216.092.332.11.136.026.267.07.392.131a.539.539 0 01.21.183.458.458 0 01.071.26.49.49 0 01-.213.411.9.9 0 01-.554.159.955.955 0 01-.412-.085.688.688 0 01-.284-.23.557.557 0 01-.101-.316h.417a.296.296 0 00.114.23c.08.058.178.086.277.08a.417.417 0 00.255-.064.19.19 0 00.084-.151zM24.496 49.863a.229.229 0 01.061-.163.277.277 0 01.356 0 .229.229 0 01.061.163.23.23 0 01-.061.16.277.277 0 01-.356 0 .23.23 0 01-.061-.16zm.458 2.382h-.422v-1.892h.424l-.002 1.892zM27.052 52.245a.592.592 0 01-.05-.176.712.712 0 01-.96.048.515.515 0 01-.181-.401.541.541 0 01.229-.458c.192-.119.416-.175.641-.16h.261v-.127a.33.33 0 00-.082-.229.323.323 0 00-.25-.089.377.377 0 00-.229.073.228.228 0 00-.091.184h-.424c0-.106.037-.207.103-.289a.662.662 0 01.28-.213.963.963 0 01.396-.078c.19-.01.378.05.529.167a.604.604 0 01.204.47v.852a.965.965 0 00.07.408v.03l-.446-.012zm-.458-.307a.494.494 0 00.229-.06.401.401 0 00.167-.164v-.358h-.229a.63.63 0 00-.355.083.27.27 0 00-.119.229.247.247 0 00.082.195c.058.049.131.075.207.075h.018zM28.747 50.354l.012.229a.687.687 0 01.552-.255c.391 0 .593.23.6.688v1.25h-.424v-1.225a.397.397 0 00-.078-.266.333.333 0 00-.254-.087.407.407 0 00-.383.23v1.346h-.426v-1.91h.401zM33.77 51.109h-1.044v.779h1.22v.353h-1.662V49.7h1.651v.354h-1.21v.703h1.045v.351zM35.513 51.94a.387.387 0 00.266-.09.322.322 0 00.11-.23h.4a.63.63 0 01-.109.33.735.735 0 01-.28.24.829.829 0 01-.38.09.803.803 0 01-.63-.257 1.017 1.017 0 01-.229-.71v-.043a.999.999 0 01.23-.688.797.797 0 01.63-.26.78.78 0 01.549.196.7.7 0 01.23.516h-.402c0-.1-.04-.195-.11-.266a.352.352 0 00-.265-.105.372.372 0 00-.317.149.768.768 0 00-.114.458v.068c-.011.16.027.32.11.459a.375.375 0 00.311.144zM37.037 51.282a1.12 1.12 0 01.11-.501.806.806 0 01.767-.463.826.826 0 01.62.247c.165.178.256.411.257.653v.101c.002.172-.034.343-.107.5a.788.788 0 01-.307.338.861.861 0 01-.458.122.82.82 0 01-.64-.266 1.022 1.022 0 01-.229-.71l-.013-.02zm.423.037a.758.758 0 00.122.458.392.392 0 00.334.165.385.385 0 00.335-.167.837.837 0 00.121-.49.753.753 0 00-.124-.458.417.417 0 00-.666 0 .84.84 0 00-.122.492zM40.717 51.732a.194.194 0 00-.093-.174 1.05 1.05 0 00-.31-.105 1.565 1.565 0 01-.362-.115.484.484 0 01-.318-.458.5.5 0 01.206-.408.81.81 0 01.525-.165c.196-.008.39.051.547.168a.534.534 0 01.209.435h-.424a.261.261 0 00-.092-.202.348.348 0 00-.229-.082.376.376 0 00-.229.064.201.201 0 00-.087.174.177.177 0 00.08.151c.105.054.217.091.332.11a1.6 1.6 0 01.394.13.56.56 0 01.211.184.459.459 0 01.069.259.494.494 0 01-.21.412.916.916 0 01-.555.158.958.958 0 01-.415-.084.655.655 0 01-.282-.23.543.543 0 01-.103-.316h.413a.305.305 0 00.114.23c.08.057.178.085.277.08.09.006.18-.017.257-.065a.196.196 0 00.075-.15zM42.67 51.636l.384-1.282h.458l-.751 2.178a.611.611 0 01-.793.445v-.33h.08a.416.416 0 00.243-.06.389.389 0 00.128-.197l.062-.163-.664-1.88h.458l.394 1.29zM45.315 51.732a.195.195 0 00-.094-.174 1.048 1.048 0 00-.31-.105 1.607 1.607 0 01-.361-.115.484.484 0 01-.319-.458.5.5 0 01.206-.408.81.81 0 01.525-.165c.196-.008.39.05.547.168a.534.534 0 01.209.435h-.424a.252.252 0 00-.092-.202.341.341 0 00-.229-.082.375.375 0 00-.229.064.208.208 0 00-.087.174.171.171 0 00.083.151c.104.054.216.092.332.11.136.027.267.07.392.13a.558.558 0 01.21.184.458.458 0 01.069.259.489.489 0 01-.21.412.9.9 0 01-.555.158.948.948 0 01-.412-.084.662.662 0 01-.284-.23.557.557 0 01-.101-.316h.412a.302.302 0 00.112.23c.082.057.18.085.28.08a.421.421 0 00.254-.064.195.195 0 00.076-.152zM47.138 49.895v.458h.334v.316h-.334v1.056c-.005.055.01.11.044.156a.199.199 0 00.153.048c.05 0 .1-.007.149-.019v.33a1.119 1.119 0 01-.28.04c-.327 0-.49-.18-.49-.541v-1.07h-.311v-.316h.311v-.459h.424zM49.133 52.28a.877.877 0 01-.653-.255.916.916 0 01-.252-.687v-.053a1.127 1.127 0 01.11-.506.84.84 0 01.307-.348.805.805 0 01.44-.124.737.737 0 01.596.247c.15.197.225.44.21.688v.188h-1.234c.005.138.06.27.156.37a.474.474 0 00.345.136.57.57 0 00.474-.23l.23.23a.763.763 0 01-.303.26.916.916 0 01-.426.083zm-.05-1.62a.361.361 0 00-.282.121.655.655 0 00-.137.342h.808v-.033a.507.507 0 00-.112-.32.357.357 0 00-.277-.11zM51.126 50.352v.2a.69.69 0 01.545-.23.526.526 0 01.52.292.667.667 0 01.58-.291.582.582 0 01.458.174.75.75 0 01.156.508v1.244h-.424v-1.23a.374.374 0 00-.078-.263.342.342 0 00-.261-.085.346.346 0 00-.23.078.397.397 0 00-.128.204v1.296h-.423v-1.244a.305.305 0 00-.342-.334.374.374 0 00-.361.208v1.375h-.424v-1.902h.412z"/>
    <path fill="#F61420" d="M42.971 19.588a13.632 13.632 0 01-17.875 12.951 13.63 13.63 0 01-6.808-4.98A13.627 13.627 0 0038.564 9.555a13.587 13.587 0 014.407 10.034z"/>
    <path fill="#354882" d="M41.41 6.736a16.892 16.892 0 00-28.918 9.927 16.896 16.896 0 003.295 11.996A16.895 16.895 0 0136.266 2.211a16.893 16.893 0 015.143 4.525z"/>
</svg>
