<svg xmlns="http://www.w3.org/2000/svg" width="12" height="14" fill="none" viewBox="0 0 12 14">
    <path fill="#44435E" d="M11.339 0H1.983C.89 0 0 .89 0 1.984v10.032C0 13.109.89 13.999 1.983 14h9.356c.246 0 .445-.2.445-.446V.446C11.784.2 11.585 0 11.34 0zM1.983.891h8.91v9.142h-8.91c-.403 0-.778.12-1.092.328V1.984c0-.603.49-1.093 1.092-1.093zm0 12.218c-.602 0-1.092-.49-1.092-1.093 0-.602.49-1.092 1.092-1.092h8.91v.646h-8.91c-.246 0-.445.2-.445.446s.2.446.445.446h8.91v.647h-8.91z"/>
    <path fill="#44435E" d="M2.573 5.538H9.21c.247 0 .446-.2.446-.446V2.9c0-.246-.2-.445-.446-.445H2.573c-.246 0-.446.2-.446.445v2.193c0 .246.2.446.446.446zm.446-2.193h5.745v1.301H3.019v-1.3z"/>
</svg>
