<svg xmlns="http://www.w3.org/2000/svg" width="39" height="39" fill="none" viewBox="0 0 39 39">
    <circle cx="19.5" cy="19.5" r="19.5" fill="#333"/>
    <path fill="#CFCFCF" d="M19.894 18.281c1.114 0 2.078-.399 2.865-1.187.788-.787 1.187-1.751 1.187-2.865 0-1.113-.4-2.076-1.187-2.864-.788-.788-1.752-1.187-2.865-1.187-1.113 0-2.077.399-2.865 1.187-.787.787-1.187 1.751-1.187 2.864 0 1.114.4 2.078 1.187 2.865.788.788 1.752 1.187 2.865 1.187zM26.984 23.113c-.023-.327-.069-.685-.137-1.062-.068-.38-.156-.74-.261-1.07-.109-.339-.257-.674-.44-.996-.19-.334-.412-.624-.662-.863-.261-.25-.582-.452-.952-.598-.369-.146-.777-.22-1.215-.22-.171 0-.337.07-.658.28-.197.128-.428.277-.686.441-.22.14-.519.272-.888.392-.36.116-.725.175-1.085.175s-.726-.06-1.086-.175c-.369-.12-.667-.251-.887-.392-.255-.163-.486-.311-.687-.442-.32-.209-.486-.28-.658-.28-.438 0-.846.075-1.215.22-.37.147-.69.348-.952.599-.25.239-.473.53-.662.863-.183.322-.33.657-.44.997-.104.329-.192.688-.26 1.069-.068.377-.114.734-.137 1.063-.022.322-.034.656-.034.993 0 .878.28 1.59.83 2.114.544.517 1.263.78 2.138.78h8.1c.875 0 1.594-.263 2.138-.78.55-.524.83-1.235.83-2.114 0-.339-.012-.673-.034-.994z"/>
</svg>
