<svg xmlns="http://www.w3.org/2000/svg" width="181" height="121" fill="none" viewBox="0 0 181 121">
    <g clip-path="url(#prefix__clip0)" opacity=".8">
        <path fill="#263238" d="M181 119.994c0 .031-40.539.094-90.516.094-49.976 0-90.484-.063-90.484-.094s40.508-.094 90.516-.094c49.976 0 90.484.063 90.484.094z"/>
        <path fill="#3B69CE" d="M10.033 100.315c1.066.031 2.07.628 2.759 1.414.69.786 1.129 1.792 1.41 2.83.534 1.98.22 4.338-.375 6.318-2.132-.754-3.48-3.049-4.076-4.275-.94-1.918-1.505-5.942.282-6.287zM16.9 113.267c-.69-.975-.69-2.327-.158-3.396.533-1.068 1.568-1.823 2.697-2.169.533-.157 1.128-.22 1.599.063.439.283.595.849.564 1.352-.063.503-.313.974-.627 1.383-1.066 1.446-2.32 2.641-4.076 2.767z"/>
        <path fill="#263238" d="M17.15 119.931s-.031-.157-.094-.409c-.063-.283-.126-.66-.22-1.131-.156-.943-.439-2.295-.22-3.804.189-1.478.785-2.767 1.412-3.521.313-.377.595-.66.815-.817.094-.095.188-.158.25-.189.063-.031.095-.063.095-.063.031.032-.502.346-1.098 1.132-.595.754-1.16 2.012-1.348 3.489-.188 1.478.063 2.798.188 3.773.063.471.126.88.189 1.131.03.252.03.378.03.409z"/>
        <path fill="#263238" d="M10.723 103.333s.031.062.094.157c.063.125.125.283.22.471.187.409.47 1.038.783 1.792.659 1.509 1.505 3.584 2.414 5.942.91 2.326 1.662 4.464 2.195 6.004.282.786.47 1.415.627 1.855.063.22.125.377.157.503.031.126.063.188.031.188 0 0-.031-.062-.063-.157-.062-.125-.094-.283-.188-.503-.156-.44-.376-1.069-.658-1.823-.564-1.54-1.348-3.647-2.258-6.004-.909-2.327-1.755-4.433-2.382-5.942-.314-.754-.565-1.352-.721-1.792-.095-.188-.157-.377-.188-.503-.063-.126-.095-.188-.063-.188z"/>
        <path fill="#3B69CE" d="M14.579 115.53c-1.254-2.169-3.637-3.647-6.114-3.804-.627-.031-1.41.063-1.693.629-.282.566.094 1.257.533 1.729 1.787 1.949 4.829 2.641 7.305 1.635"/>
        <path fill="#263238" d="M9.437 113.424h.408c.125 0 .282.031.47.063.188.031.376.062.596.125.22.063.47.095.721.189.25.063.533.189.815.314.565.252 1.129.566 1.693 1.006.564.44 1.035.912 1.411 1.384.188.251.345.471.502.723.156.22.25.44.376.66.125.188.188.408.25.566.064.157.126.314.158.44.062.251.125.377.094.377-.032 0-.189-.534-.596-1.352-.126-.188-.22-.409-.376-.629-.126-.22-.314-.44-.502-.691-.376-.472-.847-.943-1.38-1.352-.564-.409-1.128-.754-1.661-1.006-.282-.126-.533-.22-.784-.314-.25-.095-.502-.157-.721-.22-.91-.22-1.474-.252-1.474-.283zM151.748 14.87c-.909.22-1.38 1.288-1.474 2.232-.094.943.032 1.949-.376 2.797-.439.975-1.505 1.698-1.536 2.767-.032.66.376 1.257.345 1.918-.032 1.068-1.129 1.886-1.161 2.954-.031.755.471 1.51.345 2.264-.094.597-.564 1.069-.752 1.635-.376 1.131.376 2.357 1.379 3.018 1.129.723 2.571.88 3.825.471 1.255-.409 2.321-1.383 2.822-2.61.565-1.35.439-2.891.314-4.337-.376-4.559-.659-9.117-.847-13.707"/>
        <path fill="#455A64" d="M149.083 30.965c-.032-.031.251-.094.407-.503.094-.189.126-.471.094-.754 0-.315-.125-.63-.219-1.006-.094-.378-.251-.818-.157-1.29.094-.502.439-.88.753-1.288.156-.189.313-.409.439-.66.094-.22.125-.503.062-.755-.156-.503-.658-.88-.909-1.477-.125-.283-.125-.629-.063-.912.063-.283.188-.566.314-.817.251-.503.502-.975.627-1.478.219-1.006.125-1.949.282-2.735.126-.786.47-1.383.784-1.666.157-.157.313-.252.408-.283.094-.031.156-.063.156-.063 0 .032-.219.095-.533.409-.313.314-.595.88-.721 1.635-.063.377-.063.817-.094 1.257-.031.472-.031.975-.157 1.478-.094.534-.376 1.006-.627 1.509-.251.503-.439 1.068-.251 1.603.189.534.69.912.91 1.509.094.283.062.597-.063.849-.125.251-.282.471-.439.691-.313.409-.658.786-.721 1.226-.094.44.031.849.157 1.226.094.377.219.723.219 1.038 0 .314-.031.597-.125.786-.094.22-.22.345-.314.408-.157.063-.219.063-.219.063z"/>
        <path fill="#B78876" d="M146.606 38.416l-2.822 8.173-11.789.629-1.975 4.401 12.322 1.258c2.445 1.005 5.267-.22 6.176-2.735l3.293-9.211-5.205-2.515zM171.03 115.561s-8.654-27.538-8.842-28.45c-.157-.817 3.136-20.622 3.543-25.747l-11.694.44v.095l-4.954.283 4.452 56.334h5.393l-.533-18.704c3.323 8.928 8.057 18.013 8.057 18.013l4.578-2.264z"/>
        <path fill="#A36957" d="M158.614 106.508c0-.158-.063-6.256-.063-6.256-.063.377-2.069-5.282-2.006-5.627 0-.19 2.069 11.883 2.069 11.883z"/>
        <path fill="#A36957" d="M156.294 91.921s-.032.126-.032.346v.943c0 .189.032.409.063.629.032.22.063.471.126.723.094.503.25 1.069.439 1.634.376 1.132.815 2.138 1.128 2.861.157.314.282.629.376.849l.157.314s-.031-.125-.094-.314c-.063-.22-.188-.503-.313-.88-.283-.723-.69-1.73-1.066-2.861-.188-.566-.345-1.1-.439-1.603-.063-.252-.094-.503-.126-.723-.031-.22-.062-.44-.062-.63-.032-.376-.063-.69-.063-.91-.063-.252-.063-.378-.094-.378z"/>
        <path fill="#455A64" d="M153.442 118.768v-.503l5.518-.252v2.075l-.345.032c-1.505.094-7.681.346-8.716.031-1.097-.314 3.543-1.383 3.543-1.383z"/>
        <path fill="#263238" d="M159.053 119.963h-.094c-.094 0-.157 0-.282.031-.282 0-.596.031-1.003.031-.847.032-2.007.063-3.292.063-1.286 0-2.446 0-3.293-.031-.407 0-.721-.032-1.003-.032h-.376.376c.282 0 .596 0 1.003.032.847 0 2.007.031 3.293.031 1.285 0 2.445-.031 3.292-.063.407 0 .721-.031 1.003-.031h.282c.031-.031.094-.031.094-.031z"/>
        <path fill="#263238" d="M151.654 120.151c-.032 0-.032-.251-.188-.471-.157-.252-.345-.378-.345-.378 0-.031.251.095.407.346.157.252.157.503.126.503zM153.284 119.334s-.094-.095-.188-.22c-.094-.126-.125-.252-.125-.252s.094.094.188.22c.062.126.125.22.125.252zM153.723 119.082s-.094-.031-.188-.125c-.094-.095-.157-.158-.157-.189 0 0 .094.031.189.126.094.094.156.188.156.188zM154.005 118.579c0 .032-.125.032-.282.032-.157 0-.282 0-.282-.032 0-.031.125-.031.282-.031.126 0 .282 0 .282.031zM154.099 118.202c0 .031-.125.094-.313.094s-.345-.031-.345-.031c0-.032.157 0 .313-.032.189 0 .314-.062.345-.031z"/>
        <path fill="#263238" d="M153.096 118.862s-.125.032-.345 0c-.094 0-.251-.031-.376-.094-.063-.032-.125-.032-.219-.094l-.094-.095c0-.063 0-.126.062-.126.345-.188.659 0 .784.189.063.094.094.189.125.22v.094s-.031-.125-.156-.314c-.063-.094-.157-.157-.314-.189-.125-.031-.313-.031-.407.032-.063.031-.032.094.031.157l.188.094.376.095c.188 0 .345 0 .345.031z"/>
        <path fill="#263238" d="M153.002 118.862s-.063-.094-.031-.251c0-.063.031-.157.094-.252.062-.063.157-.188.282-.188.094 0 .125.094.094.157 0 .063-.031.126-.063.157-.062.094-.125.157-.156.22-.126.126-.189.157-.22.157.031 0 .094-.063.188-.188.063-.063.094-.126.157-.22.063-.063.094-.22 0-.22s-.188.094-.22.157c-.062.063-.094.157-.094.22-.062.157-.031.251-.031.251zM158.928 118.485s-.157 0-.408.031c-.251.032-.596.126-.878.378-.282.251-.47.565-.564.786-.094.251-.094.408-.094.377v-.126c0-.063.031-.189.063-.283.062-.251.25-.566.564-.817.313-.252.658-.346.909-.378h.314c.062 0 .094.032.094.032zM156.294 119.554c0 .031-.345.063-.815.063-.439 0-.815-.063-.815-.063 0-.032.345 0 .815 0 .439 0 .815-.032.815 0z"/>
        <path fill="#263238" d="M157.36 119.522s-.031.063-.063.158c-.031.094-.062.157-.062.157-.032 0-.032-.095 0-.189.031-.094.094-.126.125-.126zM157.768 119.019s-.032.063-.094.126c-.063.063-.126.094-.126.094s.031-.062.094-.125.094-.095.126-.095zM158.332 118.799c0 .032-.063.032-.157.032-.094.031-.125.063-.156.063 0 0 .031-.095.125-.126.125-.032.188 0 .188.031zM158.74 118.674c0 .031-.031.031-.063.063-.031.032-.094.032-.094 0s.031-.032.063-.063h.094z"/>
        <path fill="#455A64" d="M166.359 118.265l-.219-.472 4.922-2.483.878 1.886-.314.157c-1.348.692-6.866 3.49-7.932 3.616-1.16.188 2.665-2.704 2.665-2.704z"/>
        <path fill="#263238" d="M171.939 117.07s-.031.032-.094.063c-.063.032-.157.095-.251.126-.251.126-.533.283-.878.44-.752.377-1.787.88-2.978 1.415-1.16.534-2.226 1.006-3.01 1.32-.376.157-.658.283-.909.377-.094.032-.188.063-.251.095-.063.031-.094.031-.094.031s.031-.031.094-.031c.063-.032.157-.063.251-.095.251-.094.564-.251.909-.408.784-.346 1.85-.786 3.01-1.321 1.16-.534 2.226-1.037 2.978-1.383.345-.157.659-.314.91-.44.094-.031.156-.094.25-.126l.063-.063z"/>
        <path fill="#263238" d="M165.292 120.277c-.031 0-.125-.189-.376-.346-.219-.157-.47-.188-.47-.22 0-.031.251-.031.501.157.251.158.345.409.345.409zM166.421 118.862s-.125-.031-.251-.126c-.125-.094-.219-.157-.219-.188 0 0 .125.031.251.126.125.094.219.157.219.188zM166.735 118.454c0 .031-.094 0-.22-.032-.125-.031-.219-.094-.219-.094 0-.032.094 0 .219.031.126.032.22.095.22.095zM166.766 117.888c0 .031-.094.094-.251.157s-.251.094-.282.094c0-.031.094-.094.251-.157.156-.094.282-.126.282-.094zM166.703 117.511s-.094.125-.251.22c-.156.094-.313.125-.313.094 0-.032.125-.063.282-.157.157-.095.282-.189.282-.157z"/>
        <path fill="#263238" d="M166.045 118.485l-.314.157c-.094.032-.219.063-.376.095-.063 0-.157.031-.219 0-.032 0-.095-.032-.126-.063-.031-.032-.031-.095 0-.157.22-.283.627-.252.815-.158.094.063.157.126.188.158.032.062.063.094.063.094s-.094-.126-.282-.22c-.094-.032-.22-.063-.345-.063-.125.031-.282.094-.376.189-.032.062 0 .125.094.125h.219c.126 0 .251-.031.377-.063.156-.031.282-.094.282-.094z"/>
        <path fill="#263238" d="M165.982 118.548s-.094-.063-.125-.22c-.032-.063-.032-.157-.032-.283.032-.094.063-.22.189-.283.094-.031.25.126.282.189.031.063-.094.031-.094.063 0 .094-.032.188-.063.251-.063.189-.125.283-.157.283 0-.031.063-.094.094-.252.032-.062.032-.157.032-.251s0-.22-.094-.189c-.095.032-.126.158-.157.22-.032.095 0 .189 0 .252.062.157.125.22.125.22zM171.218 115.75s-.157.063-.376.189c-.22.125-.471.346-.659.691-.156.346-.188.692-.188.943.032.252.094.409.063.409 0 0-.031-.031-.031-.094-.032-.063-.063-.157-.063-.283-.032-.252 0-.629.157-.975.188-.345.47-.597.689-.723.126-.063.22-.094.283-.125.094-.032.125-.032.125-.032zM169.243 117.825s-.282.22-.69.409c-.408.188-.752.282-.752.282 0-.031.344-.157.721-.314.407-.22.721-.409.721-.377z"/>
        <path fill="#263238" d="M170.247 117.353c.031 0 0 .095 0 .157v.158c-.032 0-.064-.063-.064-.158 0-.094.032-.157.064-.157zM170.403 116.725c.031 0 0 .062-.032.157-.031.063-.062.126-.094.126-.031 0 0-.063.032-.158.031-.063.062-.125.094-.125zM170.81 116.284c0 .032-.062.063-.125.095-.063.063-.094.125-.125.125-.032 0 0-.094.062-.157.126-.063.188-.094.188-.063zM171.155 116.002s0 .062-.031.094c-.032.031-.063.063-.094.031 0 0 0-.063.031-.094.031 0 .094-.031.094-.031z"/>
        <path fill="#598AE2" d="M164.979 52.028l-.91-11.223 4.703.094s.22-1.666-.47-5.281c-.439-2.232-1.912-3.584-3.574-4.401v-.032l-.126-.063c-2.1-.974-4.326-1.131-4.326-1.131l-5.769.063s-4.421-.566-6.866 2.609c-.941 1.226-3.857 9.556-3.857 9.556l6.929 3.364-.658-4.621s.125 3.332.564 4.401c.251.598.909 2.42.909 2.42l-.094 5.534 13.545-1.29z"/>
        <path fill="#598AE2" d="M161.812 39.17l-.878 3.678h8.089l-.533-6.161-6.678 2.483z"/>
        <path fill="#263238" d="M169.023 42.848c0-.031-.407-.063-1.066-.094-.658-.032-1.567-.063-2.602-.063-1.003 0-1.944.063-2.602.094-.659.063-1.066.095-1.066.126 0 .032.407 0 1.066 0 .658-.031 1.567-.031 2.602-.063h2.602c.659.032 1.066.032 1.066 0z"/>
        <path fill="#263238" d="M161.436 36.655c-.032 0-.032.346-.032.943 0 .566.032 1.383.063 2.232.031.88.063 1.666.125 2.232.032.566.063.943.094.943.032 0 .032-.345.032-.943 0-.566-.032-1.383-.063-2.232-.031-.88-.063-1.666-.125-2.232-.032-.566-.063-.943-.094-.943z"/>
        <path fill="#000" d="M154.068 39.83s1.787 13.392 6.866 13.015c0 0 2.289-.031 3.01-1.54v-.598l-9.876-10.877zM161.436 37.441l-.941 6.57.627 1.164 1.004-2.264h-.439l-.251-5.47z" opacity=".3"/>
        <path fill="#263238" d="M151.56 47.784s-.063-.094-.126-.315c-.094-.22-.188-.502-.313-.88-.251-.754-.533-1.792-.784-2.955-.219-1.163-.345-2.263-.376-3.05-.032-.376-.032-.722-.032-.942 0-.22 0-.346.032-.346.031 0 .031.471.125 1.257.063.786.188 1.855.439 3.018.22 1.163.502 2.2.721 2.955.094.346.188.66.251.88.031.252.063.378.063.378zM153.598 51.65c-.032 0-.157-.282-.283-.66-.125-.377-.156-.691-.125-.691s.157.283.282.66c.094.346.157.66.126.691zM154.287 51.588c-.031 0-.188-.41-.188-.975 0-.566.126-1.006.157-.974.031 0 0 .44 0 .974.031.535.094.975.031.975z"/>
        <path fill="#263238" d="M150.87 45.74c-.031.032-1.63-.723-3.606-1.729-1.975-.974-3.543-1.823-3.543-1.854.032-.032 1.631.723 3.606 1.729 1.975.974 3.543 1.792 3.543 1.854z"/>
        <path fill="#B78876" d="M153.723 31.154c.031-1.604.031-3.27.031-3.27s-2.038-.408-2.383-3.08c-.344-2.547.596-8.551.596-8.551 2.979-1.132 6.051-.095 8.089 2.295l-.501 12.92c-.063 1.51-1.38 2.64-2.979 2.578-1.63-.094-2.884-1.383-2.853-2.892z"/>
        <path fill="#263238" d="M151.811 21.063c0 .188.125.345.313.345s.345-.125.345-.314-.125-.346-.314-.346c-.156 0-.313.126-.344.314zM151.685 20.591c.031.031.314-.126.658-.126.377 0 .628.189.659.157.031-.031-.031-.094-.126-.188-.125-.095-.313-.189-.533-.189-.219 0-.438.063-.533.157-.094.095-.125.189-.125.189zM155.542 21.283c0 .188.125.345.313.345s.345-.125.345-.314-.125-.346-.314-.346c-.156 0-.313.126-.344.315zM155.541 20.843c.032.03.314-.126.659-.126.376 0 .627.188.658.157.031-.031-.031-.094-.125-.189-.126-.094-.314-.188-.533-.188-.22 0-.439.063-.533.157-.126.094-.157.157-.126.189zM154.131 23.546c0-.031-.22-.063-.596-.126-.094 0-.188-.031-.188-.094-.032-.063.031-.157.062-.283.094-.22.189-.471.283-.723.407-1.006.721-1.855.658-1.855-.031-.031-.408.786-.815 1.792-.094.252-.188.472-.282.723-.032.095-.094.22-.063.377.031.063.094.126.157.158.062.031.125.031.156.031h.628z"/>
        <path fill="#A36957" d="M153.754 27.884s1.787.157 3.606-.849c0 0-.909 1.824-3.574 1.51l-.032-.66z"/>
        <path fill="#263238" d="M156.701 19.774c-.062.125-.344.063-.658 0-.313-.063-.596-.126-.627-.252-.031-.126.282-.314.721-.22.408.063.659.346.564.472zM153.033 19.24c-.031.125-.313.188-.658.188-.345 0-.659 0-.69-.126-.031-.126.251-.346.658-.346.439-.031.722.157.69.283z"/>
        <path fill="#A36957" d="M154.13 24.426c-.062-.031-.156.032-.188.095-.031.094-.031.188.063.251.063.063.188.063.251 0s.094-.188.063-.251c-.032-.095-.157-.126-.251-.095"/>
        <path fill="#263238" d="M154.225 24.458c.031 0-.063-.095-.22-.063-.063.031-.157.094-.188.189-.031.094 0 .251.125.345.126.095.251.063.345 0 .094-.063.126-.188.126-.251-.032-.157-.157-.189-.157-.157 0 .031.031.063.031.188 0 .063-.031.095-.062.126-.032.031-.126.031-.157 0-.032-.032-.063-.094-.063-.157s.031-.095.094-.126c.031-.094.094-.063.126-.094zM158.833 21.723c-.313.723-1.097 1.32-.972 2.106.063.503.408 1.006.345 1.509-.094.66-.752 1.1-.846 1.729-.126.786.658 1.415.94 2.138.439 1.069-.125 2.295-.125 3.426-.031 1.792 1.505 3.458 3.261 3.584.721.063 1.536-.157 1.881-.786.313-.503.251-1.163.439-1.729.282-.849 1.066-1.446 1.254-2.326.313-1.572-1.599-2.892-1.474-4.496.063-.691.471-1.288.659-1.949.251-.88.031-1.854-.565-2.546-.47-.566-1.16-.943-1.567-1.54-.471-.692-.471-1.572-.627-2.39-.408-1.98-1.913-3.71-3.794-4.4-1.913-.692-4.139-.347-5.738.88 0 0-.47 2.074 1.662 2.42 2.132.346 3.104-.063 3.355.786 0 0-.251 1.006.627 1.949.846.975 1.662.786 1.285 1.635z"/>
        <path fill="#455A64" d="M162.22 36.09s-.063 0-.188-.032c-.126-.032-.314-.063-.533-.157-.439-.157-1.098-.535-1.631-1.226-.282-.346-.533-.755-.69-1.258-.188-.471-.282-1.037-.282-1.603 0-.566.063-1.195.22-1.792.094-.314.188-.597.313-.912.126-.314.251-.597.345-.911.094-.315.063-.629 0-.912-.094-.314-.219-.597-.345-.849-.125-.283-.282-.566-.376-.848-.094-.283-.125-.598-.063-.912.126-.597.471-1.038.69-1.478.22-.44.282-.911.282-1.351-.031-.85-.407-1.478-.689-1.855-.314-.378-.533-.503-.533-.535 0 0 .25.126.595.472.314.346.721 1.006.753 1.886.031.44-.063.943-.282 1.415-.22.471-.565.911-.659 1.446-.125.534.157 1.1.439 1.666.125.283.282.566.376.88.094.315.094.692 0 1.006-.094.315-.251.629-.345.912-.125.283-.219.597-.282.88-.157.597-.251 1.195-.219 1.76 0 1.132.376 2.138.909 2.798.533.692 1.129 1.038 1.568 1.227.376.22.627.251.627.282z"/>
        <path fill="#455A64" d="M161.906 20.214s-.157.031-.47.063c-.314.031-.753.063-1.286-.032-.533-.094-1.191-.346-1.63-1.006-.219-.314-.282-.691-.439-1.069-.125-.345-.376-.66-.721-.88-.69-.44-1.505-.503-2.195-.566-.721-.094-1.379-.22-1.818-.566-.47-.314-.69-.754-.753-1.037-.031-.157-.031-.283-.031-.346 0-.094.031-.126.031-.126.032 0-.031.158.063.472.063.283.314.66.753.975.438.314 1.066.44 1.787.503.689.094 1.536.125 2.257.597.376.22.658.597.784.974.125.378.219.755.407 1.038.377.597 1.004.849 1.537.974.533.095.972.095 1.254.095.313-.063.47-.063.47-.063zM161.122 17.667s-.125.063-.376.063-.596-.031-1.003-.22c-.189-.094-.408-.22-.596-.408-.188-.189-.345-.41-.502-.66-.282-.472-.564-1.07-1.128-1.32-.565-.252-1.223-.19-1.756-.158-.565.063-1.066.063-1.505 0-.439-.063-.753-.252-.941-.409-.094-.094-.157-.157-.188-.22s-.063-.094-.031-.094c0 0 .094.094.282.251.188.157.502.283.909.346.408.063.909.032 1.474-.031.564-.032 1.191-.126 1.85.157.313.126.564.377.752.629.188.251.314.534.47.754.126.252.283.472.439.629.157.157.345.314.533.409.377.188.721.251.941.251.251.031.376 0 .376.031zM163.16 35.398c-.031 0 .094-.22.188-.598.126-.377.22-.974.22-1.697-.032-.723-.188-1.572-.659-2.39-.219-.408-.564-.785-.846-1.225-.126-.22-.251-.472-.314-.755-.062-.283-.031-.566.063-.849.188-.534.502-1.006.564-1.509.094-.503-.156-.943-.407-1.351-.126-.22-.251-.41-.345-.63-.094-.22-.157-.44-.188-.66-.063-.44 0-.848.031-1.194.094-.723.031-1.32-.157-1.666-.156-.377-.376-.472-.376-.503l.031.031c.032 0 .063.032.095.063.094.063.188.189.282.378.188.377.282.974.219 1.697-.031.377-.063.755-.031 1.163.031.409.251.818.501 1.226.126.22.251.409.345.66.094.252.126.535.094.786-.062.535-.407 1.006-.564 1.54-.094.252-.125.504-.063.755.063.252.157.472.282.692.283.44.628.817.847 1.226.47.849.658 1.729.658 2.483 0 .724-.125 1.32-.25 1.698-.063.189-.126.346-.189.44 0 .157-.031.189-.031.189z"/>
        <path fill="#263238" d="M150.4 93.996s-2.1-20.057-2.226-27.476c-.125-7.419 3.324-14.744 3.324-14.744l13.513-.566s2.665 7.514 2.727 10.689c.094 6.13-1.63 12.197-1.442 17.07l.439 15.027"/>
        <path fill="#FAFAFA" d="M167.173 69.318s-.062.063-.219.157c-.032.032-.094.063-.126.095l-.125.125c-.094.095-.219.189-.314.346-.438.535-.752 1.478-1.066 2.672-.156.598-.344 1.258-.689 1.918-.094.157-.188.314-.314.471-.063.063-.125.157-.188.22l-.219.22c-.283.283-.627.504-1.004.66-.752.346-1.599.504-2.383.88-.783.378-1.379 1.133-1.724 1.981-.376.85-.596 1.76-.941 2.578-.313.818-.721 1.635-1.41 2.138-.659.534-1.505.66-2.226.692-.722.03-1.411.03-2.007.125-.596.095-1.129.283-1.505.566-.376.283-.596.66-.69 1.006-.094.314-.094.597-.062.786.031.189.094.252.062.252 0 0-.062-.095-.094-.252-.063-.189-.063-.471.032-.786.094-.346.313-.723.721-1.037.376-.315.94-.535 1.536-.63.627-.093 1.285-.093 2.007-.125.721-.063 1.504-.188 2.132-.691.627-.472 1.034-1.258 1.348-2.075.313-.818.533-1.73.94-2.578.377-.88 1.004-1.666 1.819-2.043.815-.41 1.661-.566 2.414-.88.376-.158.721-.346.972-.63l.188-.188c.063-.063.125-.157.157-.22.125-.126.188-.314.282-.472.345-.628.533-1.288.69-1.886.313-1.194.658-2.169 1.128-2.703.094-.158.22-.252.314-.346.063-.032.094-.094.125-.126.032-.031.094-.063.126-.094.251-.095.313-.126.313-.126zM167.268 60.013s0 .094.031.283c0 .188-.031.44-.094.754-.157.66-.627 1.54-1.536 2.358-.439.408-.972.817-1.568 1.163-.596.346-1.286.692-1.944 1.1-.69.377-1.38.818-2.007 1.415-.627.566-1.097 1.32-1.505 2.138-.438.786-.815 1.603-1.316 2.326-.251.346-.533.66-.847.943-.313.283-.658.503-1.034.692-.722.377-1.443.597-2.101.817-.659.22-1.286.377-1.85.629-.533.22-1.035.471-1.411.754-.376.283-.69.566-.878.818-.407.503-.501.88-.533.88 0 0 .032-.094.094-.252.063-.157.188-.408.408-.66.188-.283.502-.566.878-.849.376-.282.878-.566 1.411-.785.564-.252 1.191-.44 1.85-.63.658-.22 1.379-.44 2.069-.817.345-.188.69-.408 1.003-.66.314-.283.596-.566.815-.912.502-.691.878-1.508 1.286-2.294.439-.818.909-1.572 1.536-2.17.627-.597 1.348-1.037 2.038-1.414.69-.377 1.348-.723 1.975-1.069.596-.346 1.129-.723 1.568-1.132.878-.786 1.379-1.666 1.536-2.295.157-.754.094-1.131.126-1.131zM148.236 67.558s0-.032-.031-.063c0-.032-.031-.095-.063-.189-.031-.157-.063-.44.032-.754.188-.63.877-1.447 1.975-1.824.564-.188 1.191-.314 1.85-.471.658-.189 1.348-.409 1.881-.975.251-.283.47-.597.658-.943.188-.346.314-.723.47-1.132.283-.786.502-1.634 1.004-2.42.47-.786 1.254-1.32 2.038-1.604.784-.282 1.599-.408 2.351-.597.753-.157 1.442-.377 2.038-.691.596-.346 1.066-.786 1.38-1.258.689-.943.846-1.918.877-2.546 0-.66-.094-1.006-.062-1.006 0 0 .125.346.125 1.006s-.157 1.634-.846 2.609c-.345.471-.816.943-1.411 1.289-.596.346-1.317.566-2.069.723-.753.188-1.537.314-2.321.597-.783.283-1.505.786-1.975 1.54-.47.755-.69 1.604-.972 2.39-.157.408-.282.786-.47 1.163s-.439.691-.69.974c-.564.566-1.285.818-1.944.975-.658.157-1.285.283-1.85.472-1.097.377-1.787 1.131-1.975 1.729-.094.314-.094.565-.062.723.031.188.062.282.062.282zM166.107 84.533s0 .063.032.19c0 .125 0 .313-.063.565-.125.472-.47 1.132-1.191 1.698-.345.282-.753.534-1.255.754-.47.22-1.003.377-1.567.534-.565.158-1.129.346-1.693.63-.565.25-1.098.628-1.537 1.13-.47.472-.846 1.007-1.285 1.478-.439.472-.941.85-1.442 1.132-1.035.566-2.101.755-2.979.786-.878 0-1.599-.189-2.038-.346-.219-.094-.407-.157-.533-.22l-.188-.094s.063.031.188.063c.126.063.282.126.533.188.471.157 1.16.315 2.038.283.878-.031 1.913-.22 2.916-.786.502-.283.972-.66 1.411-1.1.439-.472.815-.974 1.285-1.477.471-.503 1.004-.912 1.599-1.164.565-.282 1.16-.44 1.725-.628.564-.157 1.066-.315 1.567-.535.471-.188.878-.44 1.223-.691.69-.535 1.066-1.163 1.192-1.635.094-.472.031-.755.062-.755z"/>
        <path fill="#B78876" d="M164.571 42.848l-2.602.063c-.157.88-.596 1.478-.596 1.478-2.195-3.804-3.888-8.897-4.295-10.94.062-.22.125-.44.219-.692.094-.283 0-.849-.031-1.163-.063-.44-.188-1.069-.251-1.352-.125-.88-.251-1.006-.564-.912-.408.126.156 2.421-.157 2.484-.188.031-.408-.755-.47-1.415-.063-.66-.345-2.64-.565-2.766-.313-.189-.595.126-.501.754.094.66.188 2.578-.157 2.61-.345.031-.627-3.27-.627-3.27s.063-.723-.345-.692c-.721.032-.157 3.49-.094 3.836.031.22-.314.283-.345.031-.031-.251-.219-3.3-.941-3.27-.564.032.439 2.862.126 3.522-.314.66-.533-2.232-1.066-2.2-.188 0-.345.062.031 1.697.188.88.753 2.515 1.254 3.835.847 4.527 4.515 19.082 10.315 16.41 3.23-1.477 4.547-8.08 4.547-8.08l-2.885.032z"/>
        <path fill="#A36957" d="M153.41 31.154h.062c.032 0 .126-.063.126-.189 0-.188-.032-.471-.094-.849-.032-.377-.157-.817-.157-1.351 0-.252 0-.535.031-.85 0-.156 0-.313.032-.44.031-.157.125-.314.219-.282.125 0 .188.094.219.22.032.126.063.283.032.409.063.817.157 1.697.345 2.609.031.125.062.22.094.346.031.062.031.125.062.188.032.032.032.063.063.095.032.03.063.062.126.094.125 0 .156-.095.188-.157.031-.063.031-.126.062-.189.032-.126.032-.252.063-.377.031-.503.031-1.038-.031-1.572 0-.283-.094-.535-.032-.786.032-.126.063-.252.157-.283.032-.031.094-.031.126-.031.031 0 .062.031.062.031.032.032.032 0 .032.032.094.22.156.503.219.785.063.283.094.566.157.85.031.282.094.565.125.88.032.282.063.597.157.88.031.157.094.283.157.44.031.063.063.157.125.22.032.031.094.094.188.063.094-.032.126-.095.126-.126.062-.189.031-.346.031-.503 0-.157-.031-.314-.031-.472-.032-.251-.063-.534-.063-.785v-.378c0-.063.031-.125.031-.157 0-.031.032-.031.032-.031h.031c.22-.095.282.188.345.44.063.251.094.503.125.754.094.503.189.975.251 1.446.032.22.032.472-.031.692-.063.22-.157.44-.22.66v.063c.377 1.698.91 3.207 1.411 4.558.502 1.352 1.004 2.515 1.443 3.458.438.944.815 1.666 1.097 2.17.125.251.251.408.313.565.063.126.126.189.126.189l-.094-.189c-.063-.157-.188-.345-.314-.566-.251-.503-.627-1.257-1.066-2.2-.439-.943-.909-2.106-1.379-3.458-.471-1.352-1.004-2.86-1.38-4.527v.031c.063-.22.157-.44.22-.66.094-.251.062-.503.031-.754-.063-.503-.157-.975-.251-1.478-.063-.251-.063-.503-.125-.754-.032-.126-.063-.252-.126-.378-.031-.062-.094-.125-.188-.188-.094-.031-.188-.031-.251 0h-.062c-.032 0-.063.031-.063.031-.031.032-.063.063-.094.126s-.031.157-.063.22v.409c0 .251.032.534.063.786 0 .157.031.314.031.471 0 .157 0 .315-.031.409 0 .031-.031.031 0 .031 0 0 0 .032 0 0l-.031-.031c-.032-.032-.063-.094-.094-.157-.063-.126-.095-.283-.126-.409-.063-.283-.125-.566-.157-.88-.031-.283-.062-.597-.125-.88-.031-.283-.094-.566-.157-.85-.063-.282-.094-.565-.251-.848 0-.031-.062-.094-.094-.126-.031-.031-.062-.031-.125-.063-.094-.031-.188 0-.251.032-.157.094-.188.251-.219.409-.032.157-.032.282 0 .44.031.125.031.251.031.408.031.535.063 1.038.031 1.54 0 .127-.031.252-.031.378 0 .063-.031.126-.063.157 0 .032-.031.032-.031.063 0 .032-.031 0-.031.032.031-.032 0 0 0-.032 0 0-.032-.031-.032-.063-.031-.063-.031-.094-.063-.157-.031-.126-.062-.22-.094-.346-.188-.912-.282-1.792-.344-2.609 0-.157 0-.314-.063-.472-.032-.063-.063-.157-.126-.22-.062-.063-.156-.094-.219-.094h.031c-.125-.031-.219.063-.282.126-.063.063-.063.157-.094.251-.031.158-.031.315-.031.472v.849c0 .534.125.974.188 1.351.063.378.094.66.125.85.032.093-.062.156-.094.156.063.032.032.032.032.032z"/>
        <path fill="#B78876" d="M132.999 47.187s-.878-.032-1.819.22c-1.63.44-4.42 2.137-4.514 4.212h2.037s-1.128 2.42-.815 2.2c.878-.597 2.603-2.326 2.603-2.326l2.508-4.306z"/>
        <path fill="#263238" d="M160.683 10.657c-.031 0-.219-1.666-.407-3.772-.188-2.075-.282-3.773-.251-3.773.031 0 .219 1.666.408 3.773.188 2.074.313 3.772.25 3.772zM169.588 3.238c.031.031-1.349 2.012-3.073 4.464-1.725 2.452-3.167 4.401-3.198 4.37-.031-.032 1.348-2.012 3.073-4.464 1.724-2.452 3.166-4.402 3.198-4.37zM173.287 12.292c0 .031-1.599.408-3.574.817-1.975.409-3.606.692-3.606.66 0-.031 1.599-.408 3.575-.817 2.006-.409 3.605-.723 3.605-.66z"/>
        <path fill="#7593D6" d="M66.656 55.454l-11.099 57.152-1.442 7.482 74.024-.377c3.323-.031 6.271-2.986 7.337-7.356l13.136-53.946c.816-3.332-.971-6.79-3.48-6.79l-74.902.095c-1.693-.032-3.135 1.508-3.574 3.74z"/>
        <path fill="#000" d="M66.656 55.674l-11.099 57.152-1.442 7.482 74.024-.377c3.323-.031 6.271-2.986 7.337-7.356l13.136-53.946c.816-3.332-.971-6.79-3.48-6.79l-74.902.094c-1.693-.031-3.135 1.51-3.574 3.741z" opacity=".5"/>
        <path fill="#7593D6" d="M121.053 108.74l-7.838-63.314c-.313-2.61-2.383-4.527-4.828-4.527l-17.182.063c-1.285 0-2.477.534-3.386 1.509l-8.151 8.708-47.782.252c-2.916 0-5.173 2.797-4.766 5.91l7.274 58.535c.314 2.578 2.383 4.527 4.797 4.527l83.273-.157c9.281.188 10.159-2.547 10.159-2.547-10.629 2.295-11.57-8.959-11.57-8.959z"/>
        <g fill="#fff" opacity=".5">
            <path d="M85.123 96.07L82.3 99.09 60.668 79.566l2.822-3.017L85.123 96.07z"/>
            <path d="M81.141 75.888l3.104 2.798L64.681 99.75l-3.104-2.798L81.14 75.888z"/>
        </g>
        <path fill="#598AE2" d="M132.936 14.367c-.188-.095-.345-.283-.345-.503l-.125-2.924c0-.189.063-.346.219-.472.157-.125.314-.157.502-.125.47.125.972 0 1.411-.283.407-.252.658-.66.721-1.07.063-.408-.063-.88-.345-1.257-.313-.408-.784-.691-1.223-.754-.94-.094-1.975.629-2.226 1.572-.094.314-.407.503-.721.408-.313-.094-.501-.408-.407-.723.407-1.509 1.975-2.609 3.48-2.452.784.095 1.536.535 2.038 1.195.47.629.689 1.415.564 2.17-.125.722-.564 1.414-1.223 1.854-.47.314-1.034.503-1.599.534l.094 2.264c0 .314-.25.597-.564.597-.094 0-.188 0-.251-.031zM133.783 15.53c.031.251-.188.503-.439.503-.251.031-.502-.189-.502-.44-.031-.252.188-.503.439-.503s.502.188.502.44z"/>
        <path fill="#263238" d="M122.872 10.248s0-.063.031-.188c0-.126.032-.315.063-.566 0-.252.063-.535.157-.912.031-.188.062-.377.125-.566.063-.188.126-.408.188-.628.314-.88.784-1.95 1.568-2.987.784-1.037 1.881-2.075 3.292-2.86.69-.41 1.505-.692 2.32-.975.847-.189 1.756-.377 2.665-.346.47-.031.941.031 1.411.094.251.032.47.095.721.126.251.032.47.094.721.189.972.251 1.913.691 2.791 1.289 1.787 1.131 3.323 2.986 4.138 5.218.408 1.132.627 2.358.627 3.584.032 1.257-.219 2.515-.658 3.678l-.157.346-.031.063.031.031c.784 1.823 1.568 3.584 2.32 5.313l.126-.157c-1.631-.629-3.198-1.226-4.703-1.824l-.063-.031-.031.031c-1.317 1.258-2.854 2.107-4.421 2.578-1.568.44-3.167.472-4.609.22-1.442-.251-2.759-.817-3.856-1.54-1.098-.723-1.976-1.572-2.634-2.484-.658-.88-1.097-1.823-1.442-2.64-.282-.85-.471-1.572-.565-2.2-.031-.315-.062-.567-.094-.818v-.598-.377c-.031-.031-.031-.063-.031-.063v1.101c.031.251.063.503.094.817.063.629.251 1.383.533 2.232.313.817.752 1.76 1.442 2.672.69.912 1.568 1.792 2.665 2.515 1.098.723 2.414 1.32 3.888 1.572 1.474.283 3.073.251 4.703-.189 1.599-.44 3.198-1.32 4.515-2.609l-.094.031c1.505.598 3.072 1.195 4.703 1.824l.25.094-.094-.251c-.752-1.73-1.505-3.521-2.288-5.313v.094l.156-.377c.439-1.226.69-2.515.659-3.773 0-1.257-.22-2.514-.627-3.678-.941-2.295-2.509-4.18-4.327-5.344-.909-.566-1.881-1.037-2.853-1.289-.251-.094-.502-.126-.721-.188-.251-.032-.502-.095-.721-.126-.502-.032-.972-.094-1.443-.094-.94-.032-1.849.157-2.727.377-.847.251-1.662.566-2.352.974-1.442.818-2.539 1.855-3.323 2.924-.784 1.069-1.254 2.138-1.536 3.05-.063.22-.126.44-.189.628-.062.189-.094.409-.125.566-.063.346-.125.66-.125.912-.032.251-.032.44-.032.565-.062.22-.062.283-.031.283z"/>
    </g>
    <defs>
        <clipPath id="prefix__clip0">
            <path fill="#fff" d="M0 0H181V121H0z"/>
        </clipPath>
    </defs>
</svg>
