<svg xmlns="http://www.w3.org/2000/svg" width="41" height="32" fill="none" viewBox="0 0 41 32">
    <path fill="#333" fill-opacity=".4" d="M38.397 0H2.603C1.166 0 0 1.17 0 2.612v26.776C0 30.83 1.166 32 2.603 32h35.794C39.834 32 41 30.83 41 29.388V2.612C41 1.17 39.834 0 38.397 0zm0 2.612V21.61l-5.13-4.68c-.772-.703-1.957-.675-2.694.065l-5.192 5.209L15.143 9.933c-.774-.927-2.191-.936-2.976-.02L2.603 21.066V2.612h35.794zM27.333 9.47c0-1.984 1.603-3.591 3.58-3.591s3.579 1.607 3.579 3.591c0 1.984-1.602 3.592-3.58 3.592-1.976 0-3.579-1.608-3.579-3.592z"/>
</svg>
