<svg xmlns="http://www.w3.org/2000/svg" width="74" height="74" fill="none" viewBox="0 0 74 74">
    <circle cx="37" cy="37" r="37" fill="#1F5096" fill-opacity=".1"/>
    <path fill="#1F5096" d="M54 22.523H20v24.715h20.573v-2.5c-1.151-1.082-1.872-2.618-1.872-4.32 0-3.27 2.662-5.932 5.933-5.932 3.27 0 5.932 2.661 5.932 5.932 0 1.702-.72 3.238-1.872 4.32v2.5H54V22.523zm-6.977 3.988v1.992H26.977v-1.992h20.046zM23.987 39.263V37.27h9.69v1.992h-9.69zm9.69 1.995v1.992h-9.69v-1.992h9.69zm16.336-8.767H23.987v-1.992h26.026v1.992z"/>
    <path fill="#1F5096" d="M46.702 51.49v-5.513c-.644.241-1.341.373-2.068.373-.728 0-1.425-.132-2.07-.373v5.512l2.07-1.01 2.068 1.01zM40.694 40.419c0 2.172 1.767 3.94 3.94 3.94 2.172 0 3.94-1.768 3.94-3.94 0-2.173-1.768-3.94-3.94-3.94-2.173 0-3.94 1.767-3.94 3.94z"/>
</svg>
