<svg xmlns="http://www.w3.org/2000/svg" width="74" height="74" fill="none" viewBox="0 0 74 74">
    <path fill="#1F5096" d="M24.97 42.889h-1.415c-1.96 0-3.555 1.595-3.555 3.555v2.59c0 .533.433.966.967.966h4.17c-.108-.303-.167-.628-.167-.967V42.89zM31.873 37.71H30.46c-1.96 0-3.555 1.596-3.555 3.557v7.766c0 .534.432.967.966.967h4.17c-.107-.303-.166-.628-.166-.967V37.711zM52.81 26.711l-6.904-9.32c-.182-.246-.47-.391-.777-.391-.306 0-.594.145-.777.391l-6.903 9.32c-.217.294-.25.685-.087 1.01.165.327.499.533.864.533h2.485v20.78c0 .533.433.966.967.966h6.903c.534 0 .967-.433.967-.967v-20.78h2.485c.365 0 .7-.205.864-.531.164-.326.13-.717-.087-1.01z"/>
    <path fill="#1F5096" d="M38.777 32.533h-1.414c-1.96 0-3.556 1.595-3.556 3.556v12.944c0 .534.433.967.967.967h4.17c-.108-.303-.167-.628-.167-.967v-16.5z"/>
    <circle cx="37" cy="37" r="37" fill="#1F5096" fill-opacity=".1"/>
</svg>
