<svg xmlns="http://www.w3.org/2000/svg" width="74" height="74" fill="none" viewBox="0 0 74 74">
    <circle cx="37" cy="37" r="37" fill="#1F5096" fill-opacity=".1"/>
    <g clip-path="url(#prefix__clip0)">
        <path fill="#1F5096" d="M50.328 37.43c-.61-4.514-3.098-7.804-6.164-7.804H29.837c-3.068 0-5.555 3.289-6.166 7.803-2.213 1.12-3.36 3.44-3.36 6.13 0 2.07.678 3.919 1.996 5.174V53h5.31v-2.594h18.767V53h5.31v-4.267c1.316-1.255 1.995-3.104 1.995-5.174-.001-2.688-1.148-5.01-3.361-6.128zm-20.492-6.21h14.325c2.019 0 3.785 2.392 4.442 5.63-.328-.061-.677-.096-1.036-.114l.002-.02c0-1.879-1.527-3.407-3.408-3.407-1.88 0-3.408 1.529-3.408 3.408H26.87c-.524 0-1.016.045-1.48.132.66-3.238 2.427-5.63 4.446-5.63zm16.671 5.498H41.82c0-1.295 1.052-2.346 2.346-2.346 1.29 0 2.342 1.05 2.342 2.346zm-20.431 9.067c-1.227 0-2.224-.995-2.224-2.225 0-1.228.997-2.225 2.224-2.225 1.228 0 2.226.996 2.226 2.225 0 1.232-.996 2.225-2.226 2.225zm17.382-.395h-12.92c-.294 0-.531-.239-.531-.532 0-.291.237-.529.531-.529h12.92c.294 0 .532.238.532.53 0 .292-.238.53-.532.53zm0-1.948h-12.92c-.294 0-.531-.238-.531-.531 0-.293.237-.53.531-.53h12.92c.294 0 .532.238.532.53 0 .293-.238.531-.532.531zm4.464 2.343c-1.227 0-2.225-.995-2.225-2.225 0-1.228.997-2.225 2.225-2.225 1.226 0 2.225.996 2.225 2.225-.001 1.232-.998 2.225-2.225 2.225zm-2.56-22.202c.762 1.219 2.105 2.036 3.65 2.038 1.69 0 3.137-.983 3.844-2.4l-2.869-.002c-1.016.003-1.84-.852-1.84-1.91.002-1.052.825-1.907 1.839-1.909h2.868c-.702-1.417-2.151-2.399-3.845-2.4-1.542-.001-2.885.818-3.648 2.04H27.217c-.636-.732-1.561-1.201-2.605-1.201-1.92-.001-3.474 1.553-3.473 3.473 0 1.915 1.554 3.468 3.47 3.47 1.044 0 1.97-.473 2.608-1.2h18.145zm-21.664-.688l-.914-1.582.916-1.582 1.825-.002.914 1.584-.913 1.582h-1.828z"/>
    </g>
    <defs>
        <clipPath id="prefix__clip0">
            <path fill="#fff" d="M19 17H55V53H19z"/>
        </clipPath>
    </defs>
</svg>
