<svg xmlns="http://www.w3.org/2000/svg" width="74" height="74" fill="none" viewBox="0 0 74 74">
    <circle cx="37" cy="37" r="37" fill="#1F5096" fill-opacity=".1"/>
    <path fill="#1F5096" d="M49.065 42.581c.368-.855.398-1.629.09-2.305-.12-.264-.292-.51-.512-.73-.37-.369-.803-.6-1.117-.733.241-.83.18-1.557-.182-2.16-.1-.167-.224-.322-.366-.468-.968-.99-1.699-.736-1.699-.736s.395-1.578-.749-2.697c-1.144-1.119-2.231-.64-3.175.319L36.6 37.825c-.672-.252-1.73-.888-2.818-.763-1.94.223-2.445 1.52-2.719 2.605-.619 2.452-.435 6.109-1.135 7.521-.862 1.738-2.55 3.197-2.55 3.197L33.994 57c2.694-2.693 5.286-3.391 7.22-4.2 4.382-1.833 6.533-4.028 7.627-5.207 2.27-2.444.544-4.565.225-5.012zM32.849 23.177l4.265-1.165c-.233-.536-.537-1.044-.902-1.508-1.022-1.298-2.481-2.185-4.108-2.495-.174-.033-.354.027-.474.159-.12.131-.161.316-.111.486l1.33 4.523z"/>
    <path fill="#1F5096" d="M31.977 31.937l3.503 4.45 4.679-4.337-3.185-4.047c.538-1.092.797-2.307.753-3.536-.006-.157-.083-.302-.21-.394-.127-.092-.289-.121-.44-.079l-8.675 2.458-2.51-6.633c-.062-.164-.204-.285-.376-.32-.172-.034-.349.021-.47.147-2.527 2.637-2.73 6.789-.472 9.657 1.406 1.787 3.518 2.811 5.794 2.812.543 0 1.082-.06 1.609-.178z"/>
</svg>
