<svg xmlns="http://www.w3.org/2000/svg" width="86" height="128" fill="none" viewBox="0 0 86 128">
    <path fill="#6BDDDD" d="M1.049 118.512V25.171c0-4.634 3.756-8.39 8.39-8.39h67.122c4.634 0 8.39 3.756 8.39 8.39v93.341c0 4.634-3.756 8.39-8.39 8.39H9.439c-4.634 0-8.39-3.756-8.39-8.39z"/>
    <path fill="#E0EBFC" d="M7.341 116.415V27.268c0-2.317 1.879-4.195 4.196-4.195h62.926c2.317 0 4.196 1.878 4.196 4.195v89.147c0 2.316-1.879 4.195-4.196 4.195H11.537c-2.317 0-4.196-1.879-4.196-4.195z"/>
    <path fill="#6BDDDD" d="M76.561 127.951H9.439c-5.205 0-9.439-4.234-9.439-9.439V25.171c0-5.205 4.234-9.44 9.439-9.44h67.122c5.204 0 9.439 4.235 9.439 9.44v93.341c0 5.205-4.234 9.439-9.439 9.439zM9.439 17.829c-4.048 0-7.341 3.293-7.341 7.342v93.341c0 4.048 3.293 7.342 7.341 7.342h67.122c4.048 0 7.341-3.294 7.341-7.342V25.171c0-4.049-3.293-7.342-7.341-7.342H9.439z"/>
    <path fill="#3762CC" d="M74.463 121.659H11.537c-2.892 0-5.244-2.353-5.244-5.244V27.268c0-2.891 2.352-5.244 5.244-5.244h62.926c2.892 0 5.244 2.353 5.244 5.244v89.147c0 2.891-2.352 5.244-5.244 5.244zM11.537 24.122c-1.736 0-3.147 1.411-3.147 3.146v89.147c0 1.735 1.411 3.146 3.147 3.146h62.926c1.736 0 3.147-1.411 3.147-3.146V27.268c0-1.735-1.411-3.146-3.147-3.146H11.537z"/>
    <path fill="#FFEA92" d="M45.765 35.041l4.63 9.38c.448.911 1.316 1.542 2.321 1.688l10.352 1.503c2.529.368 3.539 3.476 1.709 5.26l-7.49 7.302c-.728.709-1.059 1.73-.888 2.73l1.769 10.31c.432 2.519-2.212 4.44-4.474 3.25l-9.259-4.867c-.898-.473-1.972-.473-2.87 0l-9.259 4.867c-2.262 1.19-4.906-.731-4.474-3.25l1.768-10.31c.172-1-.16-2.021-.886-2.73l-7.49-7.301c-1.83-1.784-.82-4.893 1.708-5.26l10.352-1.504c1.004-.146 1.872-.777 2.322-1.687l4.63-9.38c1.13-2.293 4.398-2.293 5.529 0z"/>
    <path fill="#A4C9FF" d="M26.482 89.96h-11.8c-1.158 0-2.097-.939-2.097-2.097 0-1.159.94-2.098 2.098-2.098h11.799c1.158 0 2.097.94 2.097 2.098s-.939 2.097-2.097 2.097zM71.317 89.96H33.561c-1.158 0-2.098-.939-2.098-2.097 0-1.159.94-2.098 2.098-2.098h37.756c1.159 0 2.098.94 2.098 2.098s-.94 2.097-2.098 2.097zM26.482 101.497h-11.8c-1.158 0-2.097-.939-2.097-2.098 0-1.158.94-2.097 2.098-2.097h11.799c1.158 0 2.097.939 2.097 2.097 0 1.159-.939 2.098-2.097 2.098zM71.317 101.497H33.561c-1.158 0-2.098-.939-2.098-2.098 0-1.158.94-2.097 2.098-2.097h37.756c1.159 0 2.098.939 2.098 2.097 0 1.159-.94 2.098-2.098 2.098zM26.482 113.033h-11.8c-1.158 0-2.097-.939-2.097-2.097s.94-2.098 2.098-2.098h11.799c1.158 0 2.097.94 2.097 2.098s-.939 2.097-2.097 2.097zM71.317 113.033H33.561c-1.158 0-2.098-.939-2.098-2.097s.94-2.098 2.098-2.098h37.756c1.159 0 2.098.94 2.098 2.098s-.94 2.097-2.098 2.097z"/>
    <path fill="#49648E" d="M49.23 24.656l1.834-21.33c.105-1.225-.86-2.277-2.09-2.277H37.026c-1.23 0-2.195 1.052-2.09 2.277l1.834 21.33c.187 2.17 2.002 3.836 4.18 3.836h4.1c2.176 0 3.992-1.666 4.178-3.836z"/>
    <path fill="#3762CC" d="M45.05 29.54h-4.1c-2.743 0-4.99-2.06-5.224-4.795l-1.834-21.33c-.076-.875.223-1.749.817-2.397C35.303.371 36.148 0 37.026 0h11.947c.88 0 1.724.371 2.318 1.018.594.648.892 1.522.818 2.397l-1.835 21.33c-.235 2.734-2.48 4.796-5.225 4.796zM37.025 2.099c-.297 0-.571.12-.772.339-.202.219-.298.503-.273.799l1.834 21.33c.142 1.64 1.489 2.876 3.135 2.876h4.099c1.646 0 2.994-1.236 3.135-2.876l1.835-21.33c.025-.296-.072-.58-.274-.8-.2-.218-.475-.338-.772-.338H37.026zM30.867 77.872c-.853 0-1.7-.267-2.425-.794-1.282-.931-1.912-2.48-1.644-4.042l1.768-10.31c.114-.66-.105-1.333-.585-1.801l-7.49-7.3c-1.135-1.106-1.536-2.73-1.046-4.237.49-1.507 1.768-2.585 3.335-2.812l10.352-1.504c.663-.097 1.236-.513 1.532-1.113l4.63-9.38c.701-1.422 2.121-2.304 3.705-2.304 1.585 0 3.005.883 3.706 2.304l4.63 9.38c.295.6.868 1.016 1.532 1.113l10.35 1.504c1.57.228 2.848 1.305 3.337 2.812.49 1.507.089 3.13-1.046 4.236l-7.49 7.302c-.48.468-.699 1.141-.585 1.801l1.768 10.31c.268 1.562-.362 3.11-1.645 4.042-1.281.93-2.95 1.051-4.351.315l-9.259-4.868c-.593-.311-1.3-.312-1.894 0l-9.258 4.868c-.61.32-1.27.478-1.927.478zM43 34.372c-.792 0-1.475.424-1.824 1.134l-4.63 9.38c-.602 1.22-1.765 2.066-3.111 2.262l-10.352 1.504c-.784.114-1.398.631-1.643 1.385-.245.753-.052 1.533.515 2.086l7.49 7.301c.974.951 1.418 2.318 1.19 3.658l-1.769 10.31c-.134.78.168 1.525.81 1.99.64.467 1.44.524 2.142.155l9.259-4.867c1.205-.633 2.641-.633 3.846 0l9.258 4.867c.702.368 1.503.312 2.144-.155.64-.465.943-1.21.809-1.99l-1.768-10.31c-.23-1.34.214-2.707 1.188-3.657l7.49-7.302c.568-.553.76-1.333.516-2.086-.245-.754-.86-1.271-1.643-1.385l-10.351-1.504c-1.347-.196-2.51-1.041-3.112-2.261l-4.63-9.38c-.35-.711-1.032-1.135-1.824-1.135z"/>
    <path fill="#F9A7A7" d="M55.061 76.825H30.939v-3.453c0-5.977 4.845-10.822 10.822-10.822h2.478c5.977 0 10.822 4.846 10.822 10.823v3.452z"/>
    <path fill="#3762CC" d="M55.061 77.874H30.939c-.579 0-1.049-.47-1.049-1.049v-3.453c0-6.545 5.325-11.87 11.871-11.87h2.478c6.546 0 11.871 5.325 11.871 11.87v3.453c0 .579-.47 1.049-1.049 1.049zm-23.073-2.098h22.024v-2.403c0-5.39-4.384-9.774-9.773-9.774H41.76c-5.39 0-9.774 4.384-9.774 9.774v2.403z"/>
    <path fill="#FEC9A3" d="M43 65.225c5.316 0 9.625-4.31 9.625-9.626s-4.31-9.625-9.625-9.625c-5.316 0-9.625 4.31-9.625 9.625 0 5.316 4.309 9.626 9.625 9.626z"/>
    <path fill="#3762CC" d="M43 66.273c-5.886 0-10.673-4.788-10.673-10.674 0-5.885 4.788-10.674 10.673-10.674 5.886 0 10.674 4.789 10.674 10.674S48.886 66.273 43 66.273zm0-19.25c-4.729 0-8.576 3.847-8.576 8.576 0 4.73 3.848 8.576 8.576 8.576 4.729 0 8.576-3.847 8.576-8.576 0-4.729-3.847-8.576-8.576-8.576z"/>
</svg>
