<svg xmlns="http://www.w3.org/2000/svg" width="17" height="13" fill="none" viewBox="0 0 17 13">
    <path fill="#44435E" d="M14.344 12.751H5.845c-.052 0-.104-.016-.147-.045L2.51 10.58c-.074-.05-.118-.132-.118-.22V4.781c0-.147.118-.265.265-.265h.945l1.78-2.037c.05-.057.123-.09.2-.09h6.105c.063 0 .123.021.17.061l1.52 1.268h.967c.147 0 .265.119.265.266v8.5c0 .147-.118.266-.265.266zm-8.418-.531h8.152V4.25h-.797c-.062 0-.122-.022-.17-.061L11.59 2.92H5.702l-1.78 2.036c-.05.058-.123.091-.2.091h-.8v5.168l3.004 2.004z"/>
    <path fill="#44435E" d="M6.907 8.236c-1.025 0-1.86-.835-1.86-1.86 0-1.025.835-1.86 1.86-1.86 1.025 0 1.86.835 1.86 1.86 0 1.025-.835 1.86-1.86 1.86zm0-3.188c-.733 0-1.328.596-1.328 1.328 0 .733.595 1.328 1.328 1.328.732 0 1.328-.595 1.328-1.328 0-.732-.596-1.328-1.328-1.328z"/>
    <path fill="#44435E" d="M6.907 7.439c-.586 0-1.063-.477-1.063-1.063s.477-1.062 1.063-1.062 1.062.476 1.062 1.062c0 .586-.476 1.063-1.062 1.063zm0-1.594c-.293 0-.531.238-.531.531 0 .293.238.531.53.531.294 0 .532-.238.532-.53 0-.294-.238-.532-.531-.532zM11.157 10.891c-.586 0-1.062-.476-1.062-1.062 0-.586.476-1.063 1.062-1.063.586 0 1.063.477 1.063 1.063s-.477 1.062-1.063 1.062zm0-1.593c-.293 0-.53.238-.53.53 0 .294.237.532.53.532.293 0 .532-.238.532-.531 0-.293-.239-.531-.532-.531z"/>
    <path fill="#44435E" d="M11.75 9.564c-.072 0-.144-.03-.196-.086L7.914 5.51c-.1-.108-.093-.276.015-.375.108-.1.277-.093.375.016l3.641 3.968c.1.108.092.276-.016.375-.05.046-.115.07-.18.07zM10.748 10.777c-.047 0-.093-.012-.136-.037L5.89 7.93c-.126-.075-.168-.238-.093-.364.075-.126.238-.168.364-.092l4.722 2.808c.127.075.168.238.093.364-.05.084-.138.13-.229.13zM1.063 5.312c-.146 0-.265-.118-.265-.265 0-.586.476-1.063 1.062-1.063.147 0 .266.119.266.266 0 .147-.119.266-.266.266-.293 0-.53.238-.53.53 0 .148-.12.266-.267.266zM1.86 11.157c-.586 0-1.062-.477-1.062-1.063 0-.147.119-.265.265-.265.147 0 .266.118.266.265 0 .293.238.532.531.532.147 0 .266.118.266.265 0 .147-.119.266-.266.266z"/>
    <path fill="#44435E" d="M1.063 10.359c-.146 0-.265-.12-.265-.266v-5.05c0-.146.119-.265.265-.265.147 0 .266.119.266.266v5.049c0 .147-.119.266-.266.266zM1.86 11.156c-.147 0-.265-.118-.265-.265V4.247c0-.147.118-.266.265-.266.147 0 .266.119.266.266v6.644c0 .147-.119.265-.266.265z"/>
    <path fill="#44435E" d="M2.657 7.44H1.86c-.147 0-.265-.119-.265-.266 0-.147.118-.266.265-.266h.797c.147 0 .265.12.265.266 0 .147-.118.266-.265.266zM2.657 8.237H1.86c-.147 0-.265-.12-.265-.266 0-.147.118-.266.265-.266h.797c.147 0 .265.12.265.266 0 .147-.118.266-.265.266zM1.063 8.236H.266C.119 8.236 0 8.117 0 7.97v-.796c0-.147.119-.266.266-.266h.797c.147 0 .266.12.266.266v.796c0 .147-.12.266-.266.266zm-.532-.531h.266V7.44H.531v.265zM11.687 2.126h-6.11c-.44 0-.797-.358-.797-.797V.797c0-.44.358-.797.797-.797h6.11c.44 0 .797.358.797.797v.532c0 .44-.357.797-.797.797zM5.577.53c-.147 0-.266.12-.266.266v.532c0 .147.12.266.266.266h6.11c.147 0 .266-.12.266-.266V.797c0-.147-.119-.266-.266-.266h-6.11z"/>
    <path fill="#44435E" d="M6.641 2.922c-.146 0-.265-.12-.265-.266V1.86c0-.147.119-.265.265-.265.147 0 .266.118.266.265v.796c0 .147-.119.266-.266.266zM10.624 2.922c-.147 0-.266-.12-.266-.266V1.86c0-.147.119-.265.266-.265.147 0 .265.118.265.265v.796c0 .147-.118.266-.265.266zM16.734 11.688h-1.593c-.147 0-.266-.118-.266-.265V5.048c0-.147.119-.266.266-.266h1.593c.147 0 .266.119.266.266v6.375c0 .147-.119.265-.266.265zm-1.328-.53h1.063V5.312h-1.063v5.844z"/>
    <path fill="#44435E" d="M15.14 10.891h-.797c-.147 0-.266-.118-.266-.265 0-.147.119-.266.266-.266h.797c.147 0 .266.119.266.266 0 .147-.119.265-.266.265zM15.14 6.11h-.797c-.147 0-.266-.118-.266-.265 0-.147.119-.266.266-.266h.797c.147 0 .266.119.266.266 0 .147-.119.265-.266.265z"/>
</svg>
