<svg xmlns="http://www.w3.org/2000/svg" width="119" height="121" fill="none" viewBox="0 0 119 121">
    <path fill="#D6D6D4" d="M32.814 78.364V44.687c4.781-2.432 8.537-6.492 10.59-11.448 2.054-4.955 2.27-10.481.611-15.582L30.764 30.802c-.938.926-2.205 1.443-3.523 1.435-1.308-.007-2.561-.53-3.486-1.456l-7.365-7.365c-.926-.925-1.449-2.178-1.456-3.486-.008-1.318.508-2.586 1.435-3.523L29.514 3.155c-3.14-1.022-6.468-1.34-9.745-.93C9.149 3.54.706 12.496.044 23.177c-.278 4.39.734 8.767 2.913 12.589 2.178 3.822 5.428 6.923 9.348 8.92v33.677C7.525 80.796 3.77 84.856 1.716 89.81c-2.054 4.956-2.27 10.482-.61 15.583l13.25-13.145c.938-.926 2.205-1.443 3.523-1.435 1.309.007 2.562.53 3.487 1.456l7.365 7.365c.925.925 1.448 2.178 1.456 3.486.007 1.318-.51 2.585-1.436 3.523l-13.144 13.252c3.14 1.022 6.468 1.34 9.745.931 10.62-1.317 19.062-10.273 19.723-20.954.279-4.39-.733-8.767-2.912-12.589-2.179-3.822-5.429-6.923-9.349-8.92z"/>
    <path fill="#C7C7C5" d="M32.814 78.363V52.638L12.306 73.146v5.217c-4.781 2.433-8.536 6.492-10.59 11.448-2.054 4.956-2.27 10.482-.61 15.583l13.25-13.145c.935-.924 2.196-1.44 3.51-1.436 1.313.003 2.572.527 3.5 1.455l7.366 7.365c.929.929 1.452 2.188 1.456 3.501.004 1.314-.513 2.576-1.437 3.509l-13.144 13.252c3.14 1.023 6.468 1.341 9.745.931 10.62-1.317 19.062-10.273 19.723-20.954.279-4.39-.733-8.766-2.912-12.588-2.179-3.823-5.429-6.923-9.349-8.92z"/>
    <path fill="#B0B0AE" d="M20.51 43.068h4.101v36.915H20.51V43.068z"/>
    <path fill="#FEC9A3" d="M118.95 96.39V78.35c0-2.962-1.069-5.825-3.009-8.062-1.941-2.238-4.624-3.7-7.556-4.12l-18.147-2.592V51.271H69.73v12.305l-18.985 4.068c-2.753.59-5.22 2.106-6.991 4.296-1.77 2.19-2.736 4.92-2.736 7.735V96.39"/>
    <path fill="#FEB784" d="M69.73 51.271v7.141c3.034 2.03 6.603 3.113 10.254 3.113 3.65 0 7.22-1.084 10.254-3.113v-7.141H69.73z"/>
    <path fill="#E0E0DE" d="M108.385 66.168l-18.147-2.592-4.395 12.305H74.124L69.73 63.576l-18.986 4.068c-2.753.59-5.22 2.106-6.99 4.296-1.77 2.19-2.736 4.92-2.736 7.735V96.39h77.932V78.35c0-2.962-1.069-5.825-3.009-8.063-1.941-2.237-4.624-3.7-7.556-4.119z"/>
    <path fill="#425B82" d="M118.95 78.35v22.141h-14.356V121h-49.22v-18.458H41.018V79.675c0-2.815.966-5.545 2.736-7.735 1.77-2.19 4.237-3.706 6.99-4.296l18.986-4.068 10.254 28.712 10.254-28.712 18.147 2.592c2.932.42 5.614 1.883 7.555 4.12 1.94 2.238 3.009 5.1 3.01 8.062z"/>
    <path fill="#3C5174" d="M118.95 78.35v22.142h-14.356V121h-49.22v-9.68c23.48-9.334 43.237-19.247 59.771-41.865 1.204 1.148 2.162 2.528 2.816 4.057.654 1.53.99 3.175.989 4.838z"/>
    <path fill="#334562" d="M77.933 92.288h4.102V121h-4.102V92.288zM86.136 90.237h18.458v4.102H86.136v-4.102zM69.73 88.186h4.101v4.102H69.73v-4.102z"/>
    <path fill="#334562" d="M102.543 84.085h4.102v32.813h-4.102V84.085zM53.323 84.085h4.102v32.813h-4.102V84.085z"/>
    <path fill="#49648E" d="M62.006 65.231l1.57 18.854 11.194-6.396-5.04-16.164-7.724 3.706zM85.198 77.689l11.193 6.396 1.616-19.4-7.769-3.16-5.04 16.164z"/>
    <path fill="#FEB784" d="M49.221 118.949h6.153l38.966-8.204h10.254l4.102-4.101h10.254V92.288h-10.254L94.34 98.44l-53.322 4.102v8.203c0 2.176.864 4.263 2.402 5.801 1.539 1.539 3.625 2.403 5.801 2.403z"/>
    <path fill="#FEC9A3" d="M110.746 118.949h-6.152l-38.966-8.204H55.374l-4.102-4.101H41.018V92.288h10.254l14.356 6.152 53.322 4.102v8.203c0 2.176-.865 4.263-2.403 5.801-1.538 1.539-3.625 2.403-5.801 2.403z"/>
    <path fill="#FEB784" d="M100.492 26.66h-2.05v12.306h2.05c1.632 0 3.197-.648 4.351-1.802s1.802-2.719 1.802-4.35c0-1.632-.648-3.197-1.802-4.351s-2.719-1.802-4.351-1.802zM59.578 26.66h-.103c-1.631 0-3.196.65-4.35 1.803-1.154 1.154-1.802 2.719-1.802 4.35 0 1.632.648 3.197 1.802 4.351s2.719 1.802 4.35 1.802h2.051V26.661h-1.948z"/>
    <path fill="#FEC9A3" d="M98.441 24.61v14.356c0 4.895-1.945 9.59-5.406 13.051-3.462 3.461-8.156 5.406-13.051 5.407-.64 0-1.28-.033-1.918-.098-4.538-.475-8.74-2.615-11.794-6.005-3.054-3.39-4.745-7.792-4.746-12.355V24.61c0-4.895 1.945-9.59 5.407-13.05 3.461-3.462 8.156-5.407 13.05-5.407.513 0 1.021.02 1.523.061h.002l.001.003c4.615.382 8.918 2.486 12.055 5.893 3.136 3.407 4.877 7.87 4.877 12.5z"/>
    <path fill="#FEC093" d="M98.441 24.61v14.357c0 4.895-1.945 9.59-5.406 13.05-3.462 3.462-8.156 5.407-13.051 5.407-.64 0-1.28-.032-1.918-.097 3.87-1.825 7.143-4.712 9.434-8.327 2.292-3.614 3.508-7.805 3.507-12.084V24.61c-.002-3.602-.866-7.15-2.518-10.35-1.652-3.2-4.045-5.957-6.98-8.044 4.615.383 8.918 2.486 12.054 5.894 3.137 3.407 4.878 7.869 4.878 12.5z"/>
    <path fill="#7A432A" d="M71.216 16.703c5.788 1.158 11.748 1.158 17.535 0l1.487-.296 8.203 9.57V24.61c0-4.895-1.944-9.59-5.406-13.051-3.461-3.462-8.156-5.406-13.051-5.406s-9.59 1.944-13.052 5.406c-3.461 3.461-5.406 8.156-5.406 13.051v1.367l8.204-9.57 1.486.296z"/>
    <path fill="#F7A468" d="M78.173 45.119h-4.342v-4.102h4.342c2.496.004 4.979-.36 7.369-1.08l1.19 3.925c-2.776.837-5.66 1.26-8.559 1.257z"/>
    <path fill="#7A432A" d="M89.213 34.864c1.699 0 3.076-1.377 3.076-3.076s-1.377-3.076-3.076-3.076c-1.7 0-3.077 1.377-3.077 3.076s1.378 3.076 3.077 3.076zM70.755 34.863c1.699 0 3.076-1.377 3.076-3.076s-1.377-3.076-3.076-3.076-3.076 1.377-3.076 3.076 1.377 3.076 3.076 3.076z"/>
    <path fill="#49648E" d="M100.946 22.831c-.004.902-.203 1.792-.585 2.61-.382.816-.936 1.54-1.625 2.123-.69.581-1.497 1.006-2.367 1.245-.87.24-1.78.287-2.67.139l-5.624-.939c-5.357-.89-10.825-.89-16.182 0l-5.624.939c-1.088.18-2.204.07-3.235-.323-1.03-.392-1.938-1.052-2.629-1.91-.691-.86-1.142-1.887-1.305-2.978-.164-1.09-.034-2.205.375-3.229h41.017c.298.739.452 1.527.454 2.323z"/>
    <path fill="#425B82" d="M100.492 12.305v8.203H59.475v-8.203c0-3.263 1.297-6.393 3.604-8.7C65.387 1.295 68.517 0 71.78 0h16.407c1.323 0 2.637.213 3.892.63.228.078.453.16.674.25 2.284.911 4.243 2.488 5.623 4.525 1.38 2.036 2.117 4.44 2.116 6.9z"/>
    <path fill="#3C5174" d="M100.492 12.305v8.204H65.628C77.933 16.407 86.544 9.22 92.753.879c2.284.913 4.243 2.49 5.623 4.526 1.38 2.037 2.117 4.44 2.116 6.9z"/>
    <path fill="#E0E0DE" d="M71.78 12.305h16.407v8.203H71.78v-8.203z"/>
    <path fill="#D6D6D4" d="M71.78 16.407h16.407v4.101H71.78v-4.101z"/>
    <path fill="#425B82" d="M100.946 22.831c-.004.902-.203 1.792-.585 2.61-.382.816-.936 1.54-1.626 2.123-.689.581-1.496 1.006-2.366 1.245-.87.24-1.78.286-2.67.139l-5.625-.939c-1.741-.29-3.497-.486-5.26-.587 4.317-1.817 7.86-4.076 10.462-6.914h7.216c.298.739.452 1.527.454 2.323z"/>
</svg>
