<svg xmlns="http://www.w3.org/2000/svg" width="12" height="12" fill="none" viewBox="0 0 12 12">
    <path stroke="#44435E" stroke-width=".7" d="M7.058 5.819c.057.331-.043.685-.298.94h0c-.132.132-.293.222-.466.269l.433.314c.21.153.431.366.546.693h0c.16.455.073.85-.002 1.192l-.006.026h0c-.106.48-.209.967.161 1.576.304.5.882.821 1.514.821.54 0 1.091-.236 1.546-.692 0 0 0 0 0 0m-3.428-5.14l3.644.922c1.24 1.24 1.254 3.243.032 4.466l-.247-.248m-3.429-5.14l.567.007c1.007.011 2.149.481 2.83 1.162h0c1.106 1.107 1.114 2.889.032 3.971m-3.429-5.14l3.429 5.14M6.175 7.053c-.332.053-.686-.045-.935-.293h0c-.132-.133-.222-.29-.27-.458l-.316.43c-.153.209-.365.427-.688.54 0 0 0 0 0 0l2.209-.219zm0 0l-.004.57c-.008 1.021-.468 2.141-1.158 2.832 0 0 0 0 0 0m1.162-3.402l-1.162 3.402m-.071-4.273l-.566-.007c-1.008-.011-2.15-.481-2.83-1.162h0C.439 3.906.43 2.125 1.514 1.042c0 0 0 0 0 0m3.428 5.14l-3.428-5.14m3.428 5.14c-.057-.332.043-.686.298-.941h0c.13-.13.288-.223.46-.273l-.426-.31c-.21-.153-.432-.366-.547-.693-.16-.455-.073-.85.002-1.192l.006-.026h0c.106-.48.209-.967-.161-1.576l.368 5.01zm-3.428-5.14C1.969.586 2.52.35 3.06.35c.632 0 1.21.321 1.514.82l-3.06-.128zm3.499 9.413c-.542.541-1.257.838-2.015.838-.743 0-1.436-.286-1.956-.806h0C.517 9.962.29 9.333.364 8.717l4.649 1.738zm3.022-5.728h0c-.324.114-.536.332-.689.541l-.315.43c-.049-.167-.14-.325-.271-.457h0c-.203-.203-.474-.315-.76-.315-.06 0-.117.005-.175.014l.005-.563c.007-1.021.467-2.141 1.157-2.832.542-.542 1.257-.838 2.015-.838.743 0 1.436.286 1.956.806h0c.525.525.752 1.154.678 1.77-.065.545-.372 1.026-.807 1.29-.295.18-.582.262-.885.262-.235 0-.447-.046-.691-.1h0c-.362-.08-.79-.158-1.218-.008zm-5.98 2.438c.236 0 .448.046.692.1L.364 8.716c.065-.544.372-1.025.807-1.29.295-.18.582-.26.885-.26z"/>
</svg>
