<svg xmlns="http://www.w3.org/2000/svg" width="15" height="15" fill="none" viewBox="0 0 15 15">
    <path fill="#44435E" d="M7.5 6.751c-.827 0-1.5.673-1.5 1.5s.673 1.5 1.5 1.5S9 9.078 9 8.251s-.673-1.5-1.5-1.5zm0 2.5c-.551 0-1-.449-1-1 0-.552.449-1 1-1 .552 0 1 .448 1 1 0 .551-.448 1-1 1z"/>
    <path fill="#44435E" d="M7.5 0C3.364 0 0 3.365 0 7.5 0 11.636 3.365 15 7.5 15c4.136 0 7.5-3.364 7.5-7.5S11.636 0 7.5 0zm0 14.5c-3.86 0-7-3.14-7-7s3.14-7 7-7 7 3.14 7 7-3.14 7-7 7z"/>
    <path fill="#44435E" d="M7.5 1.5c-3.309 0-6 2.692-6 6s2.691 6 6 6c3.308 0 6-2.692 6-6s-2.692-6-6-6zm0 .5c2.337 0 4.337 1.466 5.132 3.526l-1.873.624c-.643.214-1.337.18-1.956-.095-.828-.368-1.778-.368-2.606 0l-.095.042c-.563.25-1.2.301-1.797.142l-2.003-.534C3.048 3.551 5.095 2 7.5 2zM2 7.5c0-.05.002-.101.004-.152l.173.058c2.465.822 4.208 2.975 4.518 5.535C4.043 12.55 2 10.259 2 7.5zM7.5 13c-.1 0-.198-.003-.296-.008-.296-2.8-2.184-5.165-4.869-6.06l-.293-.098c.026-.22.066-.437.118-.65l2.016.538c.27.072.548.108.825.108.447 0 .893-.092 1.304-.276l.095-.042c.699-.31 1.5-.31 2.2 0 .733.326 1.556.366 2.317.112L12.79 6c.077.27.133.549.168.834l-.294.098c-2.685.895-4.573 3.26-4.868 6.06-.098.005-.197.008-.296.008zm.804-.06c.31-2.559 2.053-4.712 4.518-5.534l.174-.058c.001.05.004.101.004.152 0 2.76-2.043 5.05-4.696 5.44z"/>
</svg>
