<svg xmlns="http://www.w3.org/2000/svg" width="14" height="14" fill="none" viewBox="0 0 14 14">
    <path fill="#44435E" d="M14 9.842l-.677-.677v-1.94h-1.13V4.63C12.194 2.077 10.117 0 7.566 0c-.02 0-.038.003-.057.003C7.49.003 7.471 0 7.452 0c-.225 0-.444.024-.655.07-2.188.367-3.862 2.269-3.862 4.559v.79H1.806v1.807H.677c-.373 0-.677.304-.677.677v.452c0 .294.19.542.452.636v2.579l.537 1.075h.366V14H2.71v-1.355h.903V14h1.355v-1.355h.365l.538-1.076V8.991c.262-.094.452-.342.452-.636v-.452c0-.373-.304-.677-.678-.677H4.516V5.419H3.387v-.79c0-1.204.515-2.286 1.332-3.05-.271.466-.429 1.006-.429 1.582 0 1.744 1.418 3.162 3.162 3.162 1.743 0 3.16-1.418 3.16-3.162 0-.754-.265-1.447-.708-1.99 1.108.751 1.838 2.02 1.838 3.458v2.597h-1.13v1.939l-.677.677v.545h.452v2.258h.452V14h2.258v-1.355h.451v-2.258H14v-.545zM.903 11.29V9.032H5.42v2.258H.903zm1.355 2.258h-.452v-.903h.452v.903zm2.258 0h-.451v-.903h.451v.903zM1.27 12.194l-.226-.452H5.28l-.226.451H1.269zm4.602-4.29v.45c0 .125-.101.227-.226.227H.677c-.124 0-.225-.102-.225-.226v-.452c0-.124.101-.226.225-.226h4.968c.125 0 .226.102.226.226zm-1.806-.678H2.258V5.87h1.807v1.355zM7.452 5.87c-1.495 0-2.71-1.216-2.71-2.71 0-1.3.921-2.39 2.146-2.65.202-.033.409-.054.62-.057 1.468.031 2.653 1.232 2.653 2.707 0 1.494-1.215 2.71-2.71 2.71zm5.419 1.806v1.355h-1.806V7.677h1.806zm-1.939 1.807h2.071l.452.451H10.48l.451-.451zm1.713 4.064H11.29v-.903h1.355v.903zm.452-1.354h-.903v-.452h-.452v.451h-.903v-1.806h.903v.903h.451v-.903h.904v1.806z"/>
    <path fill="#44435E" d="M7.394.986c-1.25 0-2.267.973-2.267 2.17 0 1.195 1.017 2.168 2.267 2.168s2.268-.973 2.268-2.169C9.662 1.96 8.645.986 7.394.986zm0 3.905c-1 0-1.814-.779-1.814-1.736 0-.956.814-1.735 1.814-1.735s1.814.779 1.814 1.735c0 .957-.813 1.736-1.814 1.736zM1.38 9.465h.395v.394H1.38v-.394zM2.169 9.465h.591v.394H2.17v-.394zM3.155 9.465h.394v.394h-.394v-.394z"/>
</svg>
