<svg xmlns="http://www.w3.org/2000/svg" width="120" height="119" fill="none" viewBox="0 0 120 119">
    <path fill="#88A1DF" d="M0 42.835c0-4.418 3.582-8 8-8h25.717V119H0V42.835zM85.7 34.835h25.99c4.418 0 8 3.582 8 8V119H85.7V34.835z"/>
    <path fill="#A4C9FF" d="M33.716 8c0-4.418 3.582-8 8-8h35.985c4.418 0 8 3.582 8 8v111H33.716V8z"/>
    <path fill="#EA6F53" d="M63.982 92.356c1.142-.69 2.088-1.663 2.745-2.824.658-1.16 1.006-2.472 1.011-3.806-.027-2.086-.875-4.077-2.36-5.543-1.485-1.465-3.487-2.286-5.573-2.286-2.086 0-4.088.821-5.573 2.286-1.485 1.466-2.333 3.457-2.36 5.543.005 1.334.353 2.645 1.01 3.806.658 1.161 1.604 2.134 2.746 2.824-2.256.822-4.206 2.316-5.587 4.28-1.38 1.965-2.126 4.305-2.136 6.705V119h23.8v-15.659c-.01-2.4-.756-4.74-2.137-6.705-1.38-1.964-3.33-3.458-5.586-4.28z"/>
    <path fill="#688EC9" d="M41.714 42.666h4v3.915h-4v-3.915zM41.714 50.496h4v3.915h-4v-3.915zM41.714 58.325h4v3.915h-4v-3.915zM41.714 66.153h4v3.915h-4v-3.915zM49.712 42.666h3.999v3.915h-3.999v-3.915zM49.712 50.496h3.999v3.915h-3.999v-3.915zM49.712 58.325h3.999v3.915h-3.999v-3.915zM49.712 66.153h3.999v3.915h-3.999v-3.915zM57.71 42.666h3.998v3.915H57.71v-3.915zM57.71 50.496h3.998v3.915H57.71v-3.915zM57.71 58.325h3.998v3.915H57.71v-3.915zM57.71 66.153h3.998v3.915H57.71v-3.915zM65.707 42.666h3.999v3.915h-3.999v-3.915zM49.712 34.837h3.999v3.915h-3.999v-3.915zM57.71 34.837h3.998v3.915H57.71v-3.915zM65.707 34.837h3.999v3.915h-3.999v-3.915zM65.707 50.496h3.999v3.915h-3.999v-3.915zM65.707 58.325h3.999v3.915h-3.999v-3.915zM65.707 66.153h3.999v3.915h-3.999v-3.915zM73.705 42.666h3.999v3.915h-3.999v-3.915zM73.705 50.496h3.999v3.915h-3.999v-3.915zM73.705 58.325h3.999v3.915h-3.999v-3.915zM73.705 66.153h3.999v3.915h-3.999v-3.915z"/>
    <path fill="#747474" d="M23.439 100.128c.715-.54 1.295-1.237 1.696-2.037.401-.801.612-1.684.616-2.579-.02-1.564-.657-3.058-1.77-4.157-1.114-1.099-2.616-1.715-4.18-1.715-1.565 0-3.066.616-4.18 1.715-1.114 1.1-1.75 2.593-1.77 4.157.004.895.214 1.778.615 2.579.402.8.982 1.497 1.697 2.037-1.84.705-3.425 1.95-4.545 3.571-1.12 1.621-1.725 3.543-1.734 5.514V119h19.834v-9.787c-.01-1.971-.613-3.893-1.734-5.514-1.12-1.621-2.705-2.866-4.545-3.571z"/>
    <path fill="#747474" d="M41.434 94.255c.715-.539 1.295-1.236 1.696-2.037.401-.8.612-1.683.616-2.578-.021-1.565-.657-3.058-1.77-4.157-1.114-1.1-2.616-1.715-4.18-1.715-1.565 0-3.067.616-4.18 1.715-1.114 1.099-1.75 2.592-1.77 4.157.003.895.214 1.778.615 2.578.401.801.982 1.498 1.697 2.037-1.84.706-3.425 1.95-4.546 3.572-1.12 1.621-1.724 3.543-1.733 5.514V119h19.833v-15.659c-.009-1.971-.613-3.893-1.733-5.514-1.12-1.621-2.705-2.866-4.545-3.572zM103.415 100.128c.715-.54 1.295-1.237 1.696-2.037.401-.801.612-1.684.616-2.579-.021-1.564-.657-3.058-1.77-4.157-1.114-1.099-2.616-1.715-4.18-1.715-1.565 0-3.067.616-4.18 1.715-1.114 1.1-1.75 2.593-1.77 4.157.004.895.214 1.778.615 2.579.401.8.982 1.497 1.697 2.037-1.84.705-3.425 1.95-4.545 3.571-1.12 1.621-1.725 3.543-1.734 5.514V119h19.833v-9.787c-.009-1.971-.613-3.893-1.733-5.514-1.121-1.621-2.705-2.866-4.545-3.571z"/>
    <path fill="#747474" d="M85.42 94.255c.715-.539 1.296-1.236 1.697-2.037.401-.8.612-1.683.615-2.578-.02-1.565-.656-3.058-1.77-4.157-1.113-1.1-2.615-1.715-4.18-1.715-1.564 0-3.066.616-4.18 1.715-1.113 1.099-1.749 2.592-1.77 4.157.004.895.215 1.778.616 2.578.401.801.982 1.498 1.697 2.037-1.84.706-3.425 1.95-4.546 3.572-1.12 1.621-1.724 3.543-1.733 5.514V119h19.833v-15.659c-.009-1.971-.613-3.893-1.733-5.514-1.12-1.621-2.705-2.866-4.545-3.572z"/>
    <path fill="#A4C9FF" d="M95.697 48.536h4v31.317h-4V48.536zM107.695 48.536h3.998v31.317h-3.998V48.536zM7.725 48.536h3.999v31.317h-4V48.536zM19.72 48.536h4v31.317h-4V48.536z"/>
    <path fill="#688EC9" d="M43.714 5.477h31.99V25.05h-31.99V5.477z"/>
</svg>
