<svg xmlns="http://www.w3.org/2000/svg" width="15" height="16" fill="none" viewBox="0 0 15 16">
    <path fill="#44435E" d="M9.441.256C6.511-.53 3.397.528 1.55 2.935-.297 5.34-.512 8.624 1.005 11.25c.99 1.726 2.63 2.984 4.554 3.494.637.171 1.293.258 1.953.259 2.678-.005 5.15-1.437 6.486-3.758 1.337-2.32 1.336-5.177-.003-7.495-.99-1.727-2.63-2.985-4.554-3.495zm4.82 9.056c-.732 2.735-3.04 4.759-5.847 5.129-2.807.37-5.56-.989-6.976-3.44C.19 8.836.19 6.17 1.437 4.006S4.99.504 7.488.497c.616 0 1.229.082 1.823.242 1.794.48 3.323 1.654 4.251 3.261.928 1.608 1.18 3.519.7 5.312z"/>
    <path fill="#44435E" d="M4.498 2.305c.195-.11.395-.21.6-.3.082-.036.14-.113.149-.201.01-.09-.028-.177-.1-.23-.072-.053-.167-.063-.248-.028-.222.097-.439.205-.649.325-1.223.7-2.182 1.781-2.73 3.079-.054.127.005.274.132.328.128.054.274-.005.328-.133.506-1.197 1.39-2.195 2.518-2.84zM13.347 9.722c-.06-.026-.13-.026-.191-.002-.062.025-.11.073-.137.135-.506 1.197-1.39 2.195-2.52 2.84-.393.226-.81.407-1.244.54-.118.037-.192.155-.174.277.019.123.125.213.249.213.024 0 .05-.004.073-.011.469-.145.92-.34 1.347-.585 1.222-.7 2.181-1.781 2.73-3.08.054-.126-.005-.273-.133-.327zM10.479 11.193l.011-.005.017-.017c1.297-1.066 1.936-2.736 1.683-4.396l-.002-.008c-.174-1.155-.774-2.203-1.682-2.937-.006-.006-.01-.013-.016-.018l-.009-.003c-1.316-1.06-3.094-1.342-4.673-.742-.002.001-.005 0-.008.002l-.003.002c-.465.171-.896.42-1.277.737l-.01.004-.017.018C3.196 4.895 2.556 6.566 2.81 8.225l.002.009c.25 1.682 1.384 3.1 2.971 3.713 1.587.612 3.38.324 4.696-.754zm-1.99-2.534c-.008.004-.015.008-.021.013l-.214.125-.437.253c-.068.04-.112.11-.12.189-.162.017-.326.011-.487-.016-.036-.122-.117-.225-.227-.288l-.467-.27c-.11-.063-.24-.082-.364-.052-.063-.074-.12-.154-.169-.237-.047-.084-.087-.172-.12-.262.088-.093.137-.216.137-.344v-.54c0-.127-.049-.25-.136-.342.057-.152.134-.295.23-.426.071.034.155.03.223-.01l.185-.107.01-.004.02-.012.213-.126.437-.252c.068-.04.112-.11.12-.19.162-.016.325-.01.485.016.038.122.12.225.23.288l.465.271c.111.064.242.082.367.052.062.075.118.154.167.237.047.083.088.171.12.261-.088.093-.137.216-.136.344v.54c0 .128.048.25.136.342-.057.153-.135.296-.231.427-.072-.032-.154-.029-.223.01l-.182.105-.012.005zm-3.476 2.243l1.253-1.805.467.27-.936 1.986-.784-.451zM3.281 7.044L5.5 7.23v.541l-2.222.185c-.032-.303-.031-.609.002-.912zm6.725-2.975L8.732 5.903l-.467-.27.952-2.017c.278.122.543.275.79.454h-.001zm1.713 3.886l-2.22-.185v-.54l2.223-.186c.032.303.03.61-.003.912zm-1.326 2.655L9.227 8.935c.162-.195.289-.415.377-.652l2.03.17c-.189.826-.622 1.578-1.242 2.157zm.788-5.235c.211.367.367.763.46 1.175l-2.036.17c-.041-.12-.093-.235-.155-.345-.065-.11-.139-.213-.22-.31l1.164-1.675c.31.288.575.62.787.985zM7.492 3.25c.426 0 .849.065 1.255.19l-.87 1.847c-.25-.043-.505-.044-.755-.003l-.87-1.846c.401-.124.82-.187 1.24-.188zm-2.117.57c.131-.076.267-.144.406-.205l.95 2.02-.24.138-.224.13-1.275-1.834c.123-.09.25-.173.383-.25zm-.768.57L5.77 6.068c-.161.195-.288.415-.377.652l-2.03-.17c.19-.827.622-1.579 1.243-2.158zm-.788 5.235c-.212-.366-.367-.762-.461-1.175l2.036-.17c.042.12.095.235.157.344.064.11.138.213.22.31L4.605 10.61c-.31-.288-.575-.62-.786-.986zm2.434 1.932l.87-1.844c.126.023.255.035.384.037.125-.001.248-.013.37-.035l.87 1.845c-.813.249-1.681.248-2.494-.003zm2.965-.17l-.95-2.02.24-.14.225-.13 1.275 1.834c-.245.18-.51.334-.788.456h-.002z"/>
    <path fill="#44435E" d="M7.76 6.534c-.462-.123-.945.096-1.156.524-.211.428-.09.945.288 1.236.379.29.91.272 1.268-.042.359-.315.445-.839.206-1.252-.131-.23-.35-.398-.607-.466zm.224 1.095c-.067.25-.314.408-.57.363-.255-.045-.433-.277-.41-.535C7.024 7.199 7.24 7 7.5 7c.044 0 .088.006.13.017.129.034.238.118.304.233.067.115.085.252.05.38zM6 1.5c0 .138-.112.25-.25.25s-.25-.112-.25-.25.112-.25.25-.25.25.112.25.25z"/>
</svg>
