<svg xmlns="http://www.w3.org/2000/svg" width="6" height="14" fill="none" viewBox="0 0 6 14">
    <path fill="#44435E" d="M5.451 5.87l.048-.45-.443-.055v-.674l.395.05.048-.45-.443-.055v-1.3h-.845c-.026-.496-.139-.767-.24-1.01l-.047-.12h1.132V.452H3.798c0-.25-.188-.452-.42-.452H2.122c-.232 0-.42.203-.42.452H.443v1.354h1.133l-.049.12c-.1.243-.213.514-.24 1.01H.444v.727l-.395-.049L0 4.063l.443.055v.674l-.395-.049L0 5.192l.443.055v.674l-.395-.049L0 6.321l.443.055v.674l-.395-.049L0 7.45l.443.055v.674L.048 8.13 0 8.58l.443.055v.674L.048 9.26 0 9.708l.443.055v1.301h4.613v-.728l.395.05.048-.45-.443-.055v-.674l.395.05.048-.45-.443-.055v-.674l.395.05.048-.45-.443-.055V6.95l.395.05.048-.45-.443-.055V5.82l.395.05zM3.798.902h.839v.452H3.81c-.007-.068-.012-.142-.012-.226V.903zM1.91 2.11c.104-.249.21-.506.21-.981V.452H3.38v.677c0 .475.107.732.21.981.091.22.178.431.202.825H1.708c.024-.394.11-.605.202-.825zM.863 1.355V.903H1.7v.226c0 .084-.004.158-.011.226H.863zm3.774 9.258H.863v-.798l3.774.469v.329zm0-.784L.863 9.36v-.674l3.774.47v.673zm0-1.129L.863 8.232v-.675l3.774.47V8.7zm0-1.129L.863 7.103v-.675l3.774.47v.673zm0-1.129L.863 5.974v-.675l3.774.47v.673zm0-1.129L.863 4.844V4.17l3.774.469v.674zm0-1.128l-3.774-.47v-.328h3.774v.797zM4.217 11.516h-.419v1.807c0 .124-.094.225-.21.225H1.911c-.116 0-.21-.101-.21-.225v-1.807h-.42v.452H.025v1.355h1.258c0 .373.282.677.629.677h1.677c.347 0 .63-.304.63-.677h1.257v-1.355H4.217v-.452zm-2.935 1.355H.443v-.452h.839v.452zm3.774-.452v.452h-.839v-.452h.839z"/>
</svg>
