<svg xmlns="http://www.w3.org/2000/svg" width="13" height="16" fill="none" viewBox="0 0 13 16">
    <path fill="#44435E" d="M12.68 10.746c-.165 0-.3.135-.3.3v2.45c0 .704-.572 1.276-1.275 1.276H1.876c-.703 0-1.275-.572-1.275-1.275v-7.44c0-.703.572-1.275 1.275-1.275h3.422l.226 4.025H3.947V7.132c0-.497-.404-.901-.901-.901-.24 0-.467.093-.637.263-.17.17-.264.397-.264.638v5.292c0 .497.404.902.9.902.492 0 .902-.41.902-.902V10.61H5.58v1.815c0 .497.404.902.901.902.492 0 .902-.41.902-.902V10.61h1.631v1.815c0 .497.405.902.902.902.491 0 .9-.41.9-.902V7.132c0-.497-.403-.901-.9-.901-.241 0-.468.094-.637.263-.17.17-.265.397-.265.638v1.675H7.44l.236-4.025h3.431c.703 0 1.274.573 1.274 1.276v2.347c0 .166.135.3.3.3.167 0 .301-.134.301-.3V6.058c0-1.034-.84-1.875-1.874-1.877H7.71l.042-.719c.22-.248.355-.574.355-.931V1.402C8.107.63 7.478 0 6.705 0h-.429c-.773 0-1.402.63-1.402 1.402v1.129c0 .354.132.678.35.925l.04.725H1.876C.842 4.181 0 5.023 0 6.058v7.439c0 1.034.842 1.876 1.876 1.876h9.229c1.034 0 1.876-.842 1.876-1.876v-2.45c0-.166-.134-.3-.3-.3zM5.93 3.89c.252.064.525.045.783.043.14-.001.28-.022.414-.064L6.82 9.088c-.013.205-.024.411-.036.617-.002.047-.006.102-.015.148-.028.137-.145.235-.29.235-.083 0-.163-.035-.22-.096-.064-.07-.076-.148-.082-.238l-.037-.664v-.003L6.014 6.83l-.132-2.364-.034-.598.082.023zm-2.283 6.119c-.166 0-.3.134-.3.3v2.115c0 .164-.137.301-.301.301-.166 0-.3-.135-.3-.3V7.131c0-.08.03-.156.087-.213.057-.057.133-.088.213-.088.166 0 .3.135.3.3v1.976c0 .166.135.3.3.3h1.911l.015.264c.006.113.007.228.035.338h-1.96zm3.134 2.415c0 .164-.137.301-.3.301-.167 0-.301-.135-.301-.3v-1.788c.192.068.408.068.601 0v1.787zm2.533-3.017c.165 0 .3-.134.3-.3V7.132c0-.08.031-.156.088-.213.057-.057.132-.088.213-.088.166 0 .3.135.3.3v5.293c0 .164-.137.301-.3.301-.166 0-.301-.135-.301-.3v-2.116c0-.166-.135-.3-.3-.3h-1.96c.027-.106.028-.216.034-.324l.016-.278h1.91zm-3.84-8.005c0-.442.36-.801.802-.801h.429c.442 0 .802.36.802.801v1.129c0 .331-.203.617-.49.739-.163.072-.337.063-.51.063-.171 0-.343.01-.507-.05-.307-.112-.526-.407-.526-.752V1.402z"/>
    <path fill="#44435E" d="M2.781 5.757c.091.136.28.175.417.084.136-.091.173-.28.082-.417-.09-.136-.28-.173-.416-.083-.136.09-.173.28-.083.416zM3.146 13.684c-.252-.105-.504.17-.383.412.057.114.186.181.312.162.127-.02.23-.119.252-.245.024-.137-.053-.277-.181-.33zM10.23 5.424c-.091-.136-.28-.173-.417-.083-.136.09-.174.28-.083.417.091.136.28.173.416.083.137-.092.173-.28.083-.417zM10.095 13.684c-.252-.105-.505.17-.383.412.057.114.186.181.312.162.127-.02.23-.119.252-.245.024-.137-.053-.277-.181-.33zM6.742 13.795c-.148-.225-.507-.142-.547.123-.04.27.29.449.495.27.112-.099.134-.27.052-.393zM12.994 9.696c-.05-.265-.415-.325-.551-.096-.066.11-.054.253.03.35.082.096.218.13.336.084.133-.052.214-.198.185-.338z"/>
</svg>
